<svg width="24" height="24" viewBox="0 0 24 24" fill="none" xmlns="http://www.w3.org/2000/svg">
<path fill-rule="evenodd" clip-rule="evenodd" d="M2.13128 3.1426C2.0326 3.24127 2 4.64165 2 8.77266C2 14.0972 2.00667 14.275 2.21157 14.3847C2.32797 14.4469 2.99256 14.4979 3.68843 14.4979H4.95372V16.117C4.95372 17.7858 5.00524 17.9986 5.40925 17.9986C5.51536 17.9986 5.88698 17.657 6.2352 17.2395C6.68668 16.6981 6.87943 16.5334 6.90733 16.6652C7.0048 17.1258 6.97713 17.1232 11.777 17.1283L16.3857 17.1333L17.6305 18.6599C19.3168 20.7279 19.5035 20.7147 19.5035 18.5273V17.1306L20.7342 17.0997L21.965 17.0687L21.9935 12.3226C22.014 8.90963 21.9872 7.53452 21.898 7.42709C21.8086 7.31934 21.4732 7.27777 20.6935 7.27777H19.6129V5.27582C19.6129 3.86461 19.5742 3.23515 19.4816 3.1426C19.2915 2.95247 2.32141 2.95247 2.13128 3.1426ZM18.7377 8.75352V13.6207L13.4055 13.649L8.07317 13.6774L6.95109 15.0243L5.82889 16.3712V15.1282C5.82889 14.3073 5.78437 13.8408 5.69762 13.754C5.60977 13.6662 5.12142 13.6227 4.22076 13.6227H2.87518V8.75461V3.88649H10.8065H18.7377V8.75352ZM9.4786 6.5109C9.30258 6.5819 9.05096 7.09398 8.45945 8.58527C8.02755 9.67431 7.68974 10.6748 7.70877 10.8086C7.73361 10.9832 7.82998 11.0619 8.05031 11.0872C8.32654 11.1188 8.38069 11.0668 8.59161 10.5675L8.82604 10.0127H9.77134H10.7168L10.8617 10.4518C11.0356 10.9787 11.2024 11.1354 11.5389 11.0877C11.7077 11.0637 11.8032 10.9661 11.8278 10.792C11.8798 10.4244 10.4567 6.9521 10.1297 6.64874C9.83829 6.37842 9.81762 6.37405 9.4786 6.5109ZM13.7641 6.55893C12.818 6.82016 12.2854 7.63385 12.284 8.82036C12.2828 9.79836 12.7072 10.574 13.4212 10.8982C13.8866 11.1096 14.985 11.1689 15.4011 11.0051C15.5549 10.9446 15.7331 10.9957 16.0008 11.177C16.2103 11.3187 16.495 11.4348 16.6334 11.4348C16.9603 11.4348 17.0935 11.1056 16.8299 10.9495C16.1929 10.5724 16.1787 10.5392 16.4404 10.0372C16.7785 9.38845 16.7806 8.25413 16.4451 7.56088C16.0126 6.66745 14.8904 6.24802 13.7641 6.55893ZM4.7568 6.64327C4.6182 6.78188 4.56066 10.5914 4.69193 10.9336C4.7312 11.0358 4.88699 11.1066 5.07274 11.1066C5.44207 11.1066 5.48626 10.9843 5.52762 9.84857L5.5554 9.0828L6.46307 9.05097C7.13958 9.02723 7.38649 8.97811 7.43254 8.8581C7.56568 8.5111 7.25729 8.37173 6.35673 8.37173H5.48922L5.52236 7.7974L5.5554 7.22307L6.61174 7.19189C7.45749 7.16695 7.68153 7.12593 7.73503 6.98656C7.8837 6.59907 7.60561 6.512 6.22032 6.512C5.32993 6.512 4.84454 6.55553 4.7568 6.64327ZM15.1364 7.355C15.7454 7.7148 15.9748 8.79717 15.6213 9.64313L15.4588 10.0324L15.0888 9.80372C14.6568 9.53669 14.2525 9.5042 14.2525 9.73633C14.2525 9.82505 14.4058 9.9769 14.5932 10.0738C15.0406 10.3052 14.8622 10.5069 14.3031 10.402C13.473 10.2463 13.0273 9.3494 13.261 8.30511C13.4836 7.31059 14.3328 6.88033 15.1364 7.355ZM10.1386 8.46034C10.2954 8.90011 10.4236 9.28157 10.4236 9.30816C10.4236 9.33463 10.1282 9.35629 9.76719 9.35629C9.40618 9.35629 9.11026 9.31932 9.10949 9.27425C9.10588 9.04101 9.70855 7.50444 9.77539 7.57642C9.81838 7.6228 9.98182 8.02046 10.1386 8.46034ZM21.1445 12.2006V16.2482L20.0779 16.2499C19.4912 16.2509 18.9374 16.2981 18.8471 16.355C18.728 16.4301 18.6681 16.7344 18.6283 17.4655L18.5736 18.4725L17.7243 17.4262C17.257 16.8507 16.7977 16.3502 16.7034 16.314C16.6091 16.2779 14.5668 16.2482 12.1649 16.2482H7.79804V15.8042C7.79804 15.4693 7.88326 15.2543 8.1445 14.929L8.49107 14.4979H13.8404C17.3186 14.4979 19.2637 14.4583 19.4013 14.3847C19.6027 14.2768 19.6129 14.1248 19.6129 11.2122V8.15294H20.3787H21.1445V12.2006Z" fill="#2E2E2E"/>
</svg>
