<svg width="24" height="24" viewBox="0 0 24 24" fill="none" xmlns="http://www.w3.org/2000/svg">
<path fill-rule="evenodd" clip-rule="evenodd" d="M10.3148 3.18432C9.7988 3.41361 9.37907 3.87408 9.11933 4.49573C8.95867 4.88007 8.9126 5.52696 8.9126 7.39846V9.80655H9.6471H10.3816V7.42798C10.3816 5.21874 10.401 5.02844 10.6539 4.75708C10.9237 4.46755 10.9688 4.46475 15.4317 4.46475C19.2936 4.46475 19.9799 4.49439 20.2341 4.67268L20.531 4.88047V12.1436V19.4067L20.2341 19.6145C19.9799 19.7928 19.2936 19.8224 15.4317 19.8224C10.9688 19.8224 10.9237 19.8196 10.6539 19.5301C10.3984 19.2559 10.3816 19.0706 10.3816 16.5253V13.8129H9.6471H8.9126L8.91554 16.584C8.91874 19.5888 9.01076 20.056 9.72963 20.7149C10.3263 21.2619 10.6241 21.2914 15.547 21.2914C20.216 21.2914 20.303 21.2865 20.8264 20.9924C21.1237 20.8253 21.5 20.4518 21.6792 20.146L22 19.5986V12.1436V4.68857L21.6792 4.14117C21.5 3.83535 21.1237 3.46182 20.8264 3.29476C20.3024 3.00029 20.2223 2.99589 15.5049 3.00096C11.8123 3.00497 10.6237 3.04703 10.3148 3.18432ZM4.52017 8.94919C3.18993 10.3139 2.06562 11.5733 2.02182 11.748C1.91017 12.193 2.14321 12.4762 4.73759 15.0482C7.10667 17.3967 7.40034 17.5823 7.89031 17.0408C8.36921 16.5117 8.19573 16.1936 6.42773 14.3584L4.74426 12.611L10.0001 12.609C13.9535 12.6075 15.3388 12.5655 15.5898 12.439C16.0205 12.2224 16.1112 11.5597 15.7545 11.2369C15.5311 11.0348 14.9595 11.0079 10.1978 10.9767L4.89009 10.9417L6.50078 9.24152C8.18144 7.46724 8.35959 7.13458 7.86708 6.68894C7.30298 6.1784 7.063 6.34052 4.52017 8.94919Z" fill="#DD4814"/>
</svg>
