<svg width="250" height="250" viewBox="0 0 250 250" fill="none" xmlns="http://www.w3.org/2000/svg">
<path d="M43.8006 112.374C52.0276 100.886 64.3569 95.6787 64.3569 95.6787C64.7593 95.5114 63.0444 79.773 63.0094 78.6567C62.4895 60.2712 65.5418 41.1414 79.376 27.8654C96.6699 11.2804 128.048 7.84401 147.887 21.8167C147.637 21.6319 154.414 16.2951 154.986 15.9529C158.689 13.7205 162.867 12.3934 167.181 12.0795C184.54 10.8309 200.459 24.4565 206.971 40.9391C213.483 57.4217 211.988 94.977 200.041 105.808" stroke="#CCDDE2" stroke-width="1.2625" stroke-miterlimit="10"/>
<path d="M36.3835 132.302C36.8113 127.778 37.9758 123.353 39.831 119.204C40.0078 118.809 40.1928 118.423 40.386 118.045" stroke="#CCDDE2" stroke-width="1.2625" stroke-miterlimit="10"/>
<path d="M57.8376 180.112C55.8376 178.296 53.9851 176.448 52.2876 174.59" stroke="#CCDDE2" stroke-width="1.2625" stroke-miterlimit="10"/>
<path d="M224.487 126.117C224.502 127.365 224.487 128.639 224.427 129.915C224.072 137.809 222.38 145.968 218.15 152.616C217.38 153.843 216.521 155.011 215.58 156.112C206.581 154.926 205.238 145.756 194.832 140.571C182.365 134.345 161.951 136.576 161.951 136.576L172.008 127.308C171.47 99.3974 150.959 101.111 150.959 101.111L149.917 103.66C150.708 101.351 151.509 99.1976 152.319 97.1997L152.364 97.0948C161.864 73.5247 171.705 70.6028 179.362 67.1989C181.192 66.7648 183.065 66.5418 184.945 66.5346C204.521 66.4297 216.01 86.3461 221.035 102.379C222.285 106.375 224.207 114.921 224.465 124.531C224.47 125.045 224.487 125.582 224.487 126.117Z" fill="#2E2E2E"/>
<path d="M235.487 230.726C233.967 232.817 231.459 233.955 228.874 233.955H199.176C198.035 233.972 196.903 233.749 195.853 233.302C194.803 232.855 193.858 232.194 193.079 231.361C192.974 231.254 192.875 231.14 192.784 231.021C191.853 229.869 191.271 228.476 191.107 227.005C190.957 225.654 191.962 224.453 193.322 224.508C193.837 224.528 194.328 224.734 194.703 225.087C195.078 225.441 195.312 225.918 195.361 226.431C195.361 226.538 195.384 226.643 195.399 226.748C195.509 227.357 195.777 227.927 196.176 228.401C196.53 228.818 196.973 229.15 197.473 229.371C197.973 229.592 198.517 229.697 199.064 229.677H229.002C229.538 229.686 230.069 229.58 230.56 229.364C231.051 229.148 231.489 228.829 231.844 228.429C232.245 227.965 232.519 227.406 232.638 226.805C232.757 226.205 232.718 225.583 232.524 225.002L219.153 185.282C219.043 184.977 218.914 184.68 218.765 184.393C217.98 182.736 216.736 181.339 215.18 180.368C213.625 179.397 211.823 178.892 209.988 178.914C204.358 178.981 197.211 178.996 196.539 178.996C181.557 178.941 174.74 178.941 170.99 179.041C171.248 178.12 171.713 177.271 172.35 176.558C172.35 176.558 172.365 176.544 172.365 176.536C173.28 175.562 174.532 174.974 175.865 174.89C181.42 174.436 186.92 173.607 192.262 172.158C201.689 169.606 210.681 165.228 216.928 158.188C219.969 154.78 222.267 150.778 223.677 146.435C224.772 142.987 225.461 139.424 225.732 135.817C225.829 134.678 225.889 133.53 225.912 132.375V132.323C225.912 132.058 225.927 131.786 225.927 131.521C225.961 129.875 225.886 128.229 225.702 126.594C227.335 126.607 228.898 127.253 230.062 128.397C230.164 128.666 230.239 128.945 230.287 129.229C230.332 129.497 230.355 129.77 230.354 130.043V162.346C230.357 164.552 229.921 166.737 229.072 168.774C228.223 170.811 226.977 172.659 225.407 174.211C222.807 176.783 222.067 180.687 223.3 184.121L236.589 223.624C236.991 224.809 237.1 226.073 236.908 227.31C236.716 228.546 236.229 229.718 235.487 230.726Z" fill="url(#paint0_linear_56_1366)"/>
<path d="M52.2901 229.729V139.167H57.8376V229.766L52.2901 229.729Z" fill="#2E2E2E"/>
<path d="M161.953 136.564C165.926 136.141 170.521 135.641 174.934 135.741" stroke="black" stroke-width="1.2625" stroke-miterlimit="10"/>
<path d="M140.315 140.563C133.28 142.336 126.436 144.896 120.596 149.152C110.797 156.284 106.317 169.59 110.322 181.118C110.322 181.133 126.071 226.517 126.071 226.517H121.926C121.033 226.517 120.148 226.693 119.324 227.036C118.499 227.379 117.75 227.882 117.121 228.515C115.889 229.739 115.281 231.779 115.281 233.652H152.587L138.41 187.326C138.056 186.185 137.977 184.975 138.178 183.797C138.379 182.619 138.855 181.504 139.567 180.544C140.279 179.583 141.207 178.804 142.277 178.268C143.347 177.733 144.528 177.457 145.724 177.462C153.801 177.689 161.304 177.999 169.473 177.644" stroke="black" stroke-width="1.2625" stroke-miterlimit="10"/>
<path d="M224.545 130.292V130.242C224.182 120.502 223.692 110.892 221.025 102.371C216 86.3384 204.511 66.422 184.935 66.5268C183.055 66.5341 181.182 66.7571 179.352 67.1911C166.448 70.2554 157.486 83.4639 152.354 97.087L152.309 97.1919C151.819 98.4988 151.366 99.8024 150.949 101.103C150.667 101.978 150.318 102.83 149.907 103.653C148.335 106.817 145.842 109.435 142.757 111.161C139.671 112.888 136.136 113.644 132.613 113.33C108.914 111.177 77.6811 109.948 67.8441 126.583" stroke="black" stroke-width="1.2625" stroke-miterlimit="10"/>
<path d="M185.765 112.176C182.315 116.337 178.682 120.355 174.928 124.241C167.241 132.203 160.609 140.659 148.679 141.223C139.162 141.68 130.103 138.031 121.103 135.502C111.477 132.797 106.604 130.634 97.6324 127.902C95.0485 127.118 92.3679 126.698 89.6678 126.653L80.6359 126.723" stroke="black" stroke-width="1.2625" stroke-miterlimit="10"/>
<path d="M150.537 227.103C151.397 226.717 152.33 226.52 153.272 226.523H157.427C157.427 226.523 148.742 209.658 141.797 198.433" stroke="black" stroke-width="1.2625" stroke-miterlimit="10"/>
<path d="M156.241 177.682L185.29 233.955H152.432H146.472" stroke="black" stroke-width="1.2625" stroke-miterlimit="10"/>
<path d="M235.487 230.726C233.967 232.817 231.459 233.955 228.874 233.955H199.176C196.714 233.955 194.312 232.936 192.777 231.013C191.846 229.862 191.264 228.468 191.099 226.998C190.949 225.647 191.954 224.445 193.314 224.5C193.829 224.52 194.32 224.726 194.695 225.079C195.07 225.433 195.304 225.91 195.354 226.423C195.415 227.149 195.699 227.837 196.169 228.394C196.527 228.804 196.972 229.131 197.471 229.352C197.97 229.572 198.511 229.681 199.056 229.67H229.002C229.538 229.679 230.069 229.572 230.56 229.356C231.051 229.141 231.489 228.822 231.844 228.421C232.245 227.958 232.519 227.398 232.638 226.798C232.757 226.197 232.718 225.576 232.524 224.995L219.153 185.282C218.475 183.401 217.229 181.778 215.587 180.637C213.945 179.496 211.988 178.894 209.988 178.914C204.358 178.981 197.211 178.996 196.539 178.996C179.857 178.943 173.29 178.943 169.811 179.071C169.756 179.07 169.703 179.059 169.653 179.038C169.603 179.017 169.558 178.987 169.52 178.948C169.482 178.91 169.451 178.864 169.431 178.814C169.411 178.764 169.4 178.71 169.401 178.656C169.396 177.114 169.962 175.625 170.99 174.476C170.994 174.473 170.998 174.469 171 174.465C171.003 174.46 171.005 174.455 171.005 174.451C171.921 173.479 173.172 172.892 174.505 172.807C180.06 172.353 185.56 171.524 190.902 170.075C200.329 167.523 209.321 163.145 215.568 156.105C218.609 152.697 220.907 148.695 222.317 144.353C223.409 140.906 224.096 137.344 224.365 133.739C224.463 132.596 224.523 131.449 224.545 130.297V130.242C224.545 129.98 224.56 129.708 224.56 129.443C224.594 127.798 224.519 126.152 224.335 124.516C227.055 124.501 229.797 126.476 230.272 129.234C230.317 129.502 230.34 129.775 230.339 130.048V162.346C230.342 164.552 229.906 166.737 229.057 168.774C228.208 170.811 226.962 172.659 225.392 174.211C222.792 176.783 222.052 180.687 223.285 184.121L236.574 223.624C236.977 224.808 237.089 226.071 236.9 227.308C236.711 228.544 236.226 229.717 235.487 230.726Z" stroke="black" stroke-width="1.2625" stroke-miterlimit="10"/>
<path d="M92.8051 132.305H15.4323C13.5367 132.305 12 133.841 12 135.734V135.737C12 137.631 13.5367 139.166 15.4323 139.166H92.8051C94.7008 139.166 96.2374 137.631 96.2374 135.737V135.734C96.2374 133.841 94.7008 132.305 92.8051 132.305Z" stroke="black" stroke-width="1.2625" stroke-miterlimit="10"/>
<path d="M70.894 230.159H39.6083C38.5467 230.159 37.686 231.019 37.686 232.08C37.686 233.14 38.5467 234 39.6083 234H70.894C71.9557 234 72.8163 233.14 72.8163 232.08C72.8163 231.019 71.9557 230.159 70.894 230.159Z" stroke="black" stroke-width="1.2625" stroke-miterlimit="10"/>
<path d="M47.9628 129.226V129.571C48.0128 131.941 50.2452 132.303 52.1701 132.318L89.3828 132.293C91.0127 132.293 92.3577 131.044 92.3602 129.511V129.446C92.3302 127.948 91.0202 126.726 89.4103 126.724C89.4103 126.724 68.5916 126.649 52.4676 126.602C52.1776 127.446 51.4426 128.1 50.5252 128.634C49.736 129.048 48.8535 129.251 47.9628 129.226Z" stroke="black" stroke-width="1.2625" stroke-miterlimit="10"/>
<path d="M27.4991 95.8361C27.5068 96.2307 27.6198 96.616 27.8266 96.9524L45.0755 125.894C45.2988 126.242 45.5917 126.54 45.9357 126.77C46.28 126.999 46.6679 127.155 47.0754 127.228C47.7646 127.364 48.4788 127.286 49.1228 127.006C50.1802 126.536 50.7902 125.59 50.7702 124.631C50.7664 124.51 50.7539 124.39 50.7327 124.271C50.6797 124.007 50.5814 123.753 50.4427 123.522L33.1937 94.5799C32.4438 93.3138 30.6089 92.8168 29.134 93.4686C28.0815 93.9281 27.4716 94.8746 27.4991 95.8361Z" stroke="black" stroke-width="1.2625" stroke-miterlimit="10"/>
<path d="M74.1413 126.724C74.1413 126.724 76.2188 124.748 80.9963 121.612" stroke="black" stroke-width="1.2625" stroke-miterlimit="10"/>
<path d="M91.0803 94.2577L83.5082 102.646C82.981 103.231 82.249 103.591 81.4638 103.652C80.6784 103.712 79.8997 103.47 79.2885 102.974C78.9507 102.7 78.6753 102.357 78.4798 101.969C78.2843 101.581 78.1733 101.156 78.1545 100.722C78.1355 100.288 78.209 99.8548 78.37 99.4512C78.531 99.0477 78.776 98.6828 79.0885 98.3809L80.4734 97.0423C80.5259 96.9674 80.5859 96.8999 80.6459 96.83L81.6458 95.7287L90.2453 86.3936C91.289 85.2475 92.6034 84.3812 94.0683 83.8735C95.5335 83.3655 97.1027 83.2326 98.6323 83.4866L98.7598 83.5091" stroke="black" stroke-width="1.2625" stroke-miterlimit="10"/>
<path d="M101.745 96.5278H94.1703C93.3083 96.5278 92.4818 96.1857 91.8723 95.5768C91.2628 94.9679 90.9203 94.1423 90.9203 93.2812C90.9203 92.4201 91.2628 91.5945 91.8723 90.9857C92.4818 90.3768 93.3083 90.0347 94.1703 90.0347H104.92" stroke="black" stroke-width="1.2625" stroke-miterlimit="10"/>
<path d="M95.938 96.5278C95.833 97.8539 95.3255 98.8354 94.578 99.5247C92.653 101.273 89.123 101.081 86.668 99.8793" stroke="black" stroke-width="1.2625" stroke-miterlimit="10"/>
<path d="M81.6583 95.7237C79.4809 93.104 79.9284 89.5427 81.6208 86.7881C88.6079 75.3902 101.927 82.4103 110.684 87.3226C115.897 90.2607 120.88 93.5884 125.591 97.277C129.76 100.524 133.62 104.41 138.63 106.362C141.63 107.534 145.172 107.813 148.157 106.462" stroke="black" stroke-width="1.2625" stroke-miterlimit="10"/>
<path d="M94.5775 99.5051C99.8618 103.401 104.907 107.61 109.688 112.109" stroke="black" stroke-width="1.2625" stroke-miterlimit="10"/>
<path d="M158.869 38.234C160.134 39.3877 162.076 39.4502 163.683 39.2953C165.738 39.108 167.773 38.6111 169.786 38.1915L171.008 38.1291H171.025C171.26 38.1316 171.491 38.1798 171.707 38.2717C171.923 38.3633 172.118 38.4967 172.282 38.6638C172.447 38.8311 172.576 39.0289 172.664 39.2461C172.751 39.4634 172.795 39.6957 172.793 39.9297C172.821 42.5654 172.558 45.1961 172.008 47.7739L174.35 49.04C174.653 48.1959 174.313 46.9797 175.03 46.8873C175.49 46.0307 176.175 45.4738 177.25 46.1106C179.355 47.3593 180.185 51.0279 178.158 52.7087L179.457 55.1361C179.911 55.9872 180.645 56.6545 181.536 57.0244C182.427 57.3942 183.419 57.4437 184.342 57.164L183.015 54.2321C186.13 54.784 188.309 50.9006 187.359 48.5306C186.712 46.9023 186.745 45.6361 187.609 44.0528C187.667 43.9454 187.079 43.8031 187.129 43.6932C187.159 42.5319 186.837 41.2882 186.277 40.6964C185.292 39.6375 183.31 39.4477 183.715 37.8394C183.895 37.1396 183.961 36.4154 183.912 35.6942C183.806 34.7514 183.5 33.8421 183.013 33.0277C182.526 32.2131 181.871 31.5121 181.09 30.9716C179.45 29.8953 177.615 30.8717 175.863 30.8443C173.735 30.8218 172.21 29.0187 169.981 28.9912C168.871 28.9738 167.981 29.4058 167.031 29.9427C166.236 30.3997 165.453 30.8767 164.693 31.3937C163.933 31.9106 163.258 32.3577 162.351 32.3602C161.169 32.3752 160.026 31.626 158.836 31.9756C158.234 32.1374 157.706 32.4985 157.336 32.9995C156.959 34.8425 157.641 37.1226 158.869 38.234Z" fill="#185DCF"/>
<path d="M174.36 48.7661C174.513 48.1155 174.737 47.4839 175.03 46.8831C175.49 46.0265 176.178 45.4696 177.25 46.1064C179.355 47.3551 180.185 51.0237 178.158 52.7044L179.458 55.1319C179.911 55.9827 180.646 56.6503 181.536 57.0201C182.427 57.39 183.419 57.4392 184.343 57.1597" stroke="black" stroke-width="1.2625" stroke-linecap="round" stroke-linejoin="round"/>
<path d="M183.015 54.2278L184.337 57.1647C184.67 57.8665 185.622 60.0242 186.62 62.2668C187.33 63.8726 188.07 65.5259 188.62 66.7421" stroke="black" stroke-width="1.2625" stroke-linecap="round" stroke-linejoin="round"/>
<path d="M161.594 43.6814C161.594 43.6814 165.491 42.7125 167.194 45.6643" stroke="black" stroke-width="1.2625" stroke-miterlimit="10"/>
<path d="M162.741 52.4946C161.691 52.7818 160.279 53.0391 159.469 52.125L161.234 48.414C161.662 47.5039 161.768 46.4753 161.534 45.497C161.149 43.8513 160.186 41.3514 161.219 39.1812" stroke="black" stroke-width="1.2625" stroke-miterlimit="10"/>
<path d="M165.364 47.5209C165.659 47.0307 165.431 46.3516 164.854 46.0042C164.277 45.6569 163.57 45.7725 163.274 46.2627C162.978 46.753 163.206 47.432 163.783 47.7794C164.36 48.127 165.068 48.0111 165.364 47.5209Z" fill="black"/>
<path d="M171.051 70.8854L170.126 60.6313" stroke="black" stroke-width="1.2625" stroke-miterlimit="10"/>
<path d="M174.35 49.0356C174.35 48.9456 174.35 48.8531 174.35 48.7631C174.355 48.6666 174.355 48.5698 174.35 48.4731" stroke="black" stroke-width="1.2625" stroke-linecap="round" stroke-linejoin="round"/>
<path d="M174.353 49.0386L173.548 48.6065L172.008 47.7699" stroke="black" stroke-width="1.2625" stroke-linecap="round" stroke-linejoin="round"/>
<path d="M167.908 52.7586C167.908 52.7586 167.831 55.3559 164.858 56.4247" stroke="black" stroke-width="1.2625" stroke-miterlimit="10"/>
<path d="M183.015 54.2275C186.13 54.7794 188.309 50.896 187.359 48.526C186.712 46.8977 186.745 45.6316 187.609 44.0483C187.667 43.9409 187.714 43.836 187.764 43.7311C188.407 42.3151 188.179 40.9116 187.169 39.7078C186.212 38.5691 184.77 38.1695 185.185 36.5087C185.371 35.7877 185.44 35.0415 185.39 34.2986C185.282 33.3288 184.967 32.3936 184.467 31.5557C183.967 30.7179 183.292 29.9969 182.49 29.4412C180.805 28.3249 178.907 29.3363 177.093 29.3088C174.908 29.2764 173.33 27.4183 171.038 27.3909C169.891 27.3909 168.966 27.8179 167.991 28.3723C167.171 28.8443 166.358 29.3413 165.583 29.8707C164.808 30.4002 164.083 30.8697 163.163 30.8697C161.944 30.8697 160.766 30.1205 159.546 30.4701C158.326 30.8197 157.601 31.8287 157.361 32.9974C156.971 34.8305 157.654 37.1206 158.881 38.2419C160.146 39.3957 162.088 39.4581 163.696 39.3033C165.751 39.116 167.786 38.619 169.798 38.1994L171.02 38.137H171.038C171.272 38.1393 171.504 38.1877 171.72 38.2794C171.935 38.3713 172.131 38.5044 172.295 38.6717C172.459 38.8388 172.589 39.0368 172.676 39.2538C172.764 39.4711 172.808 39.7034 172.805 39.9376C172.833 42.5733 172.57 45.2038 172.02 47.7818" stroke="black" stroke-width="1.2625" stroke-miterlimit="10"/>
<path d="M174.824 57.0696C174.824 57.0696 170.179 63.2331 166.051 61.852C161.924 60.471 161.714 52.8416 161.714 52.8416" stroke="black" stroke-width="1.2625" stroke-linecap="round" stroke-linejoin="round"/>
<path d="M52.2901 229.729V139.167H57.8376V229.766" stroke="black" stroke-width="1.2625" stroke-miterlimit="10"/>
<path d="M57.3948 86.471C62.3402 86.471 66.3492 82.466 66.3492 77.5254C66.3492 72.5849 62.3402 68.5799 57.3948 68.5799C52.4493 68.5799 48.4403 72.5849 48.4403 77.5254C48.4403 82.466 52.4493 86.471 57.3948 86.471Z" fill="#185DCF"/>
<path d="M53.8926 79.833C53.6306 79.6542 53.3981 79.4359 53.2026 79.1862C52.8568 78.7586 52.6801 78.2195 52.7053 77.6705C52.7306 77.1216 52.9566 76.6009 53.3401 76.2068C53.5903 75.9496 53.8968 75.7536 54.2356 75.6344C54.5743 75.5153 54.9361 75.4761 55.2926 75.5201C55.2136 75.0248 55.2981 74.5171 55.5336 74.0741C55.7688 73.6311 56.1423 73.2764 56.5971 73.0641C57.0521 72.8519 57.5638 72.7929 58.0548 72.8968C58.5461 73.0007 58.9903 73.2614 59.3201 73.6395C60.0176 74.4287 60.3451 75.6025 60.4676 76.6364C60.5308 77.1761 60.5393 77.721 60.4926 78.2622C60.4701 78.5344 60.3726 80.1052 60.1176 80.2051C58.4326 80.8494 55.5601 80.9893 53.8926 79.833Z" fill="white"/>
<path d="M120.574 84.3604C123.225 84.3604 125.374 82.2137 125.374 79.5655C125.374 76.9173 123.225 74.7706 120.574 74.7706C117.923 74.7706 115.774 76.9173 115.774 79.5655C115.774 82.2137 117.923 84.3604 120.574 84.3604Z" fill="#185DCF"/>
<path d="M120.244 77.3434C120.39 77.2552 120.549 77.192 120.716 77.1561C121.003 77.0871 121.305 77.1254 121.565 77.2632C121.826 77.4013 122.027 77.6296 122.131 77.9053C122.199 78.0853 122.224 78.2789 122.204 78.4704C122.185 78.6617 122.121 78.8463 122.019 79.0091C122.271 79.0893 122.492 79.2479 122.649 79.4619C122.805 79.6759 122.89 79.9339 122.89 80.1991C122.89 80.4641 122.805 80.7223 122.649 80.9363C122.492 81.1501 122.271 81.3087 122.019 81.3891C121.446 81.5142 120.85 81.4708 120.301 81.2642C120.025 81.1711 119.758 81.0507 119.506 80.9046C119.379 80.8322 118.636 80.4276 118.649 80.2803C118.721 79.3113 119.309 77.8878 120.244 77.3434Z" fill="white"/>
<path d="M83.3582 74.0963C83.8962 74.5448 84.4966 74.9124 85.1406 75.1876C86.3265 75.6821 87.6207 75.8604 88.8964 75.7051C90.1721 75.5498 91.3855 75.066 92.4177 74.3011C93.2176 73.6917 93.9176 72.8501 94.745 72.2383C95.3222 71.7865 96.0155 71.506 96.7449 71.4291C96.9874 71.4361 97.2281 71.3854 97.4474 71.2818C98.0023 70.9371 97.3474 70.3652 97.2899 69.9607C97.2129 69.3136 97.3756 68.6608 97.7474 68.1251C98.6968 66.7106 99.1275 65.0114 98.9658 63.3157C98.8043 61.6202 98.0606 60.0327 96.8609 58.8224C95.6612 57.6122 94.0793 56.8538 92.3839 56.6757C90.6883 56.4979 88.9831 56.9115 87.558 57.846C86.1505 58.7675 85.1056 60.1336 84.0457 61.4397C83.1107 62.591 82.1333 63.7248 81.4483 65.0409C79.8384 68.1351 80.7784 71.9461 83.3582 74.0963Z" fill="#185DCF"/>
<path d="M92.9052 63.8974C93.7902 63.8974 94.5077 63.1806 94.5077 62.2965C94.5077 61.4122 93.7902 60.6957 92.9052 60.6957C92.0202 60.6957 91.3027 61.4122 91.3027 62.2965C91.3027 63.1806 92.0202 63.8974 92.9052 63.8974Z" fill="white"/>
<path d="M89.8054 67.6833C90.6904 67.6833 91.4079 66.9666 91.4079 66.0825C91.4079 65.1984 90.6904 64.4817 89.8054 64.4817C88.9204 64.4817 88.2029 65.1984 88.2029 66.0825C88.2029 66.9666 88.9204 67.6833 89.8054 67.6833Z" fill="white"/>
<path d="M86.8981 71.237C87.7831 71.237 88.5006 70.5203 88.5006 69.6362C88.5006 68.7521 87.7831 68.0354 86.8981 68.0354C86.0131 68.0354 85.2956 68.7521 85.2956 69.6362C85.2956 70.5203 86.0131 71.237 86.8981 71.237Z" fill="white"/>
<g opacity="0.46">
<path opacity="0.46" d="M133.243 54.6446C133.117 55.2717 132.854 55.8626 132.471 56.3748C132.087 56.8867 131.594 57.3068 131.028 57.604L117.664 64.6965C117.16 64.9652 116.607 65.1318 116.039 65.187C115.47 65.2419 114.896 65.1842 114.35 65.0172C113.804 64.8501 113.296 64.5771 112.856 64.2135C112.415 63.8499 112.051 63.4029 111.784 62.8984L101.132 42.8621C100.592 41.8459 100.479 40.6574 100.816 39.5573C101.153 38.4575 101.913 37.5359 102.93 36.9958L116.304 29.9058C118.316 28.8369 121.093 29.656 122.173 31.7014L132.828 51.7302C133.307 52.622 133.454 53.6547 133.243 54.6446Z" fill="#185DCF"/>
</g>
<path d="M129.276 53.1265L116.244 48.1642C116.078 48.0998 115.94 47.9784 115.855 47.8221C115.771 47.6655 115.744 47.4839 115.781 47.3101L118.804 33.4223C118.838 33.2745 118.916 33.1406 119.029 33.0385C119.141 32.9361 119.281 32.8701 119.431 32.8494C119.582 32.8284 119.735 32.8537 119.871 32.9216C120.006 32.9895 120.118 33.0971 120.191 33.23L130.201 52.0751C130.272 52.2092 130.3 52.3618 130.283 52.5124C130.265 52.663 130.201 52.8048 130.101 52.9187C130.001 53.0326 129.868 53.1135 129.721 53.1507C129.574 53.1877 129.419 53.1792 129.276 53.1265Z" fill="white"/>
<g opacity="0.46">
<path opacity="0.46" d="M148.742 68.5871C149.015 68.7829 149.241 69.0377 149.403 69.3326C149.565 69.6273 149.658 69.9547 149.677 70.2903L150.177 78.2294C150.196 78.5291 150.155 78.8296 150.058 79.1135C149.96 79.3977 149.808 79.6597 149.609 79.8847C149.41 80.1097 149.168 80.2933 148.898 80.4249C148.628 80.5565 148.334 80.6336 148.034 80.6519L136.108 81.3861C135.503 81.4223 134.909 81.2175 134.455 80.8167C134.002 80.4161 133.726 79.852 133.688 79.2484L133.2 71.3043C133.179 70.7044 133.388 70.1193 133.786 69.6695C134.184 69.2197 134.739 68.9395 135.338 68.8868L147.262 68.1376C147.793 68.1079 148.317 68.2672 148.742 68.5871Z" fill="#185DCF"/>
</g>
<path d="M147.158 70.1554L141.938 75.3175C141.871 75.3802 141.785 75.4181 141.694 75.4244C141.603 75.4309 141.512 75.4054 141.438 75.3525L135.438 70.8822C135.374 70.834 135.326 70.7673 135.301 70.6911C135.276 70.615 135.275 70.5328 135.298 70.4561C135.322 70.3795 135.368 70.3118 135.431 70.2618C135.493 70.2121 135.57 70.1829 135.65 70.1779L146.87 69.4862C146.949 69.4842 147.026 69.5056 147.092 69.5481C147.158 69.5903 147.21 69.6515 147.241 69.7237C147.272 69.7956 147.28 69.8752 147.266 69.9524C147.251 70.0293 147.213 70.1 147.158 70.1554Z" fill="white"/>
<g opacity="0.46">
<path opacity="0.46" d="M67.7472 112.214C66.9645 112.342 66.173 112.409 65.3797 112.414C57.7847 112.414 58.0397 105.378 58.0397 105.378L64.3322 106.737C64.0945 106.155 64.0035 105.524 64.0672 104.898C64.1307 104.273 64.3472 103.673 64.6972 103.151C66.1372 101.048 69.4822 102.129 69.4822 102.129L71.5622 100.791L71.1122 103.288L73.8997 102.819L72.4672 104.474C74.3922 106.322 76.8447 111.949 70.9297 114.873C65.0147 117.798 62.4622 114.294 62.4622 114.294L65.3797 112.416L67.7472 112.214Z" fill="#185DCF"/>
</g>
<path d="M67.6217 105.334C68.1242 105.334 68.5317 104.927 68.5317 104.424C68.5317 103.923 68.1242 103.515 67.6217 103.515C67.1192 103.515 66.7117 103.923 66.7117 104.424C66.7117 104.927 67.1192 105.334 67.6217 105.334Z" fill="white"/>
<path d="M83.4832 233.955H187.544" stroke="black" stroke-width="0.7875" stroke-miterlimit="10"/>
<defs>
<linearGradient id="paint0_linear_56_1366" x1="203.995" y1="126.594" x2="203.995" y2="233.956" gradientUnits="userSpaceOnUse">
<stop stop-color="#185DCF"/>
<stop offset="1" stop-color="#00183F"/>
</linearGradient>
</defs>
</svg>
