<svg width="250" height="250" viewBox="0 0 250 250" fill="none" xmlns="http://www.w3.org/2000/svg">
<path d="M42.1025 111.477C42.0368 111.835 42.0478 112.203 42.1353 112.557C42.2225 112.91 42.3843 113.241 42.6095 113.527C42.8345 113.813 43.118 114.047 43.441 114.215C43.764 114.383 44.119 114.48 44.4825 114.5L44.72 114.512" stroke="black" stroke-width="0.8675" stroke-miterlimit="10"/>
<path d="M193.645 56.5655H155.635C153.2 56.5655 151.225 58.5397 151.225 60.9755V124.458C151.225 126.893 153.2 128.868 155.635 128.868H193.645C196.081 128.868 198.055 126.893 198.055 124.458V60.9755C198.055 58.5397 196.081 56.5655 193.645 56.5655Z" fill="#185DCF"/>
<path d="M110.265 80.4727L110.04 85.3902L109.408 89.4227L105.925 111.718L105.833 112.308L105.69 111.128L105.33 108.16L109.958 81.0002L110.265 80.4727Z" fill="#185DCF"/>
<path d="M111.115 61.4053L111.028 63.2803C111.028 62.2103 111.115 61.4053 111.115 61.4053Z" fill="#185DCF"/>
<path d="M203.187 57.5175V160.25C203.187 161.68 202.619 163.051 201.608 164.062C200.597 165.073 199.227 165.641 197.797 165.643H115.047C115.082 165.143 115.112 164.643 115.147 164.143C115.175 163.6 115.205 163.068 115.232 162.54C114.151 163.05 113.041 163.496 111.907 163.878C111.057 164.173 110.187 164.428 109.315 164.653L109.227 164.59C108.547 164.09 107.994 163.436 107.614 162.682C107.233 161.928 107.036 161.095 107.037 160.25V126.335L108.315 117.068L108.772 113.75L108.807 113L109.172 104.82V104.755L109.292 101.968L109.305 101.805L109.322 101.378L109.822 89.93L110.025 85.4L111.007 79.11C110.7 79.6775 110.435 80.1525 110.257 80.4825L110.355 78.2025L110.75 69.7075V69.6825L111.032 63.3325C111.032 64.4875 111.142 65.945 111.577 67.045C111.753 67.566 112.081 68.0218 112.52 68.3525L112.6 68.41C112.627 68.4278 112.655 68.4438 112.685 68.4575V68.4175L114 60.0575L114.467 59.375L116.787 55.9575C116.79 55.953 116.792 55.948 116.792 55.9425C116.792 55.9373 116.79 55.932 116.787 55.9275L117.057 53.7575L117.202 52.595H117.377L119.332 52.52H119.355L126.79 52.23H126.84L141.54 52.1425H197.79C199.218 52.14 200.589 52.7048 201.601 53.7125C202.614 54.7205 203.184 56.0893 203.187 57.5175Z" fill="#185DCF"/>
<path d="M201.91 58.8823V158.882C201.91 160.275 201.357 161.61 200.372 162.595C199.388 163.579 198.053 164.132 196.66 164.132H115.143C115.17 163.59 115.2 163.057 115.228 162.53C114.146 163.039 113.036 163.486 111.903 163.867C111.867 163.852 111.83 163.839 111.793 163.827C110.775 163.459 109.896 162.787 109.274 161.902C108.651 161.017 108.317 159.962 108.315 158.88V113.63L107.038 114.25L106.955 114.29L106.783 113.862L105.925 111.722L105.69 111.132L103.525 105.727C103.525 105.727 107.645 89.1023 110.363 78.1973C111.363 74.1973 112.168 70.9598 112.51 69.6023C112.613 69.1973 112.678 68.9598 112.688 68.9198C112.688 68.9105 112.688 68.9013 112.688 68.8923C112.692 68.8148 112.68 68.7373 112.653 68.6648C112.617 68.5788 112.577 68.4953 112.53 68.4148C112.526 68.3975 112.518 68.3815 112.508 68.3673C112.226 67.8878 111.909 67.43 111.56 66.9973L111.108 61.4198L111.183 61.3623L111.525 61.0898L113.855 59.2398L114.4 57.8048L115.47 54.9998L115.945 53.7498H117.073H117.363H119.405L126.95 53.7273H127.598L141.91 53.6398H196.66C198.051 53.6398 199.385 54.1918 200.37 55.1748C201.354 56.1578 201.908 57.491 201.91 58.8823Z" fill="url(#paint0_linear_56_1422)"/>
<path d="M107.037 113.75V160.25C107.036 161.093 107.233 161.925 107.613 162.678C107.992 163.431 108.544 164.085 109.222 164.585L109.31 164.648" stroke="black" stroke-width="0.8675" stroke-miterlimit="10"/>
<path d="M115.043 165.633H197.793C199.221 165.633 200.592 165.066 201.603 164.057C202.614 163.048 203.184 161.679 203.188 160.25V57.5175C203.188 56.8093 203.049 56.108 202.779 55.4538C202.508 54.7993 202.111 54.2048 201.611 53.7038C201.11 53.203 200.515 52.8058 199.861 52.5348C199.207 52.264 198.506 52.1248 197.798 52.125H141.548L126.848 52.2125H126.798L119.35 52.2525H119.31L117.373 52.265" stroke="black" stroke-width="0.8675" stroke-miterlimit="10"/>
<path d="M193.643 134.178H117.378C114.942 134.178 112.968 136.152 112.968 138.588V155.698C112.968 158.133 114.942 160.108 117.378 160.108H193.643C196.078 160.108 198.053 158.133 198.053 155.698V138.588C198.053 136.152 196.078 134.178 193.643 134.178Z" fill="white"/>
<path opacity="0.54" d="M121.807 147.468H153.355" stroke="white" stroke-width="0.8675" stroke-miterlimit="10"/>
<path d="M168.428 139.952H119.788C118.962 139.952 118.293 140.622 118.293 141.447V153.21C118.293 154.035 118.962 154.705 119.788 154.705H168.428C169.253 154.705 169.923 154.035 169.923 153.21V141.447C169.923 140.622 169.253 139.952 168.428 139.952Z" fill="#185DCF"/>
<path d="M159.483 146.165C160.325 146.165 161.008 145.482 161.008 144.64C161.008 143.798 160.325 143.115 159.483 143.115C158.64 143.115 157.958 143.798 157.958 144.64C157.958 145.482 158.64 146.165 159.483 146.165Z" fill="white"/>
<path d="M155.22 151.542C155.247 150.43 155.708 149.371 156.505 148.594C157.301 147.816 158.371 147.381 159.484 147.381C160.597 147.381 161.666 147.816 162.463 148.594C163.26 149.371 163.721 150.43 163.748 151.542H155.22Z" fill="white"/>
<path d="M182.948 139.952C181.461 139.949 180.006 140.387 178.768 141.211C177.531 142.035 176.565 143.208 175.994 144.581C175.423 145.954 175.272 147.465 175.56 148.924C175.848 150.383 176.563 151.723 177.613 152.776C178.664 153.828 180.003 154.545 181.461 154.837C182.919 155.128 184.431 154.98 185.805 154.411C187.179 153.843 188.354 152.88 189.18 151.644C190.006 150.408 190.448 148.954 190.448 147.467C190.45 146.481 190.257 145.504 189.881 144.592C189.505 143.681 188.953 142.852 188.256 142.154C187.56 141.456 186.732 140.902 185.821 140.524C184.91 140.147 183.934 139.952 182.948 139.952ZM182.948 153.165C182.799 153.172 182.65 153.148 182.511 153.096C182.371 153.044 182.244 152.965 182.136 152.862C182.028 152.759 181.943 152.636 181.884 152.499C181.825 152.362 181.795 152.215 181.795 152.066C181.795 151.917 181.825 151.77 181.884 151.633C181.943 151.496 182.028 151.372 182.136 151.27C182.244 151.167 182.371 151.087 182.511 151.035C182.65 150.983 182.799 150.96 182.948 150.967C183.23 150.981 183.496 151.102 183.691 151.307C183.886 151.511 183.995 151.783 183.995 152.066C183.995 152.348 183.886 152.62 183.691 152.825C183.496 153.029 183.23 153.151 182.948 153.165ZM184.33 144.715C184.098 146.345 183.903 148.057 183.415 149.637C183.305 150.02 182.588 150.02 182.473 149.637C182.129 148.443 181.866 147.228 181.685 146C181.535 145.11 181.015 143.662 181.513 142.8C181.953 142.025 183.19 141.932 183.903 142.337C184.78 142.84 184.435 143.905 184.33 144.715Z" fill="#185DCF"/>
<path d="M202.338 163.145C206.546 168.777 209.905 174.996 212.305 181.605C217.71 196.38 218.333 214.105 207.805 226.82C200.96 235.087 189.87 237.545 179.603 237.5" stroke="#CCDDE2" stroke-width="0.8675" stroke-miterlimit="10"/>
<path d="M77.4225 79.2172C72.4225 65.9672 71.91 50.4372 78.1125 37.4897C86.5125 19.9723 106.295 11.7698 124.947 12.5498C147.617 13.4998 165.73 27.9997 176.287 47.5197C177.105 49.0197 177.88 50.5647 178.615 52.1247" stroke="#CCDDE2" stroke-width="0.8675" stroke-miterlimit="10"/>
<path d="M190.928 108.832C190.56 111.968 189.258 114.92 187.191 117.307C185.125 119.694 182.389 121.404 179.338 122.217C176.287 123.029 173.063 122.906 170.083 121.863C167.103 120.82 164.505 118.906 162.627 116.369C160.748 113.831 159.675 110.788 159.548 107.634C159.42 104.479 160.243 101.359 161.911 98.6785C163.578 95.9977 166.013 93.88 168.899 92.5997C171.785 91.3197 174.989 90.9365 178.095 91.4997C178.231 91.5265 178.36 91.5805 178.475 91.6587C178.589 91.737 178.686 91.8375 178.761 91.9542C178.835 92.0712 178.885 92.202 178.907 92.3387C178.929 92.4755 178.924 92.6152 178.89 92.7497L178.578 93.9597L175.795 104.83C175.751 105.003 175.753 105.185 175.801 105.357C175.849 105.53 175.942 105.686 176.07 105.811C176.198 105.937 176.357 106.026 176.53 106.07C176.703 106.115 176.885 106.113 177.058 106.065L187.86 103.042L189.338 102.63C189.47 102.593 189.608 102.584 189.744 102.602C189.881 102.62 190.012 102.665 190.13 102.735C190.248 102.805 190.351 102.899 190.432 103.009C190.513 103.12 190.571 103.246 190.603 103.38C191.029 105.164 191.139 107.01 190.928 108.832Z" fill="white"/>
<path d="M191.31 97.632C191.361 97.7645 191.384 97.9062 191.377 98.0482C191.37 98.1902 191.333 98.329 191.269 98.4558C191.205 98.5825 191.115 98.6945 191.005 98.7842C190.895 98.874 190.767 98.9397 190.63 98.977L189.613 99.262L180.813 101.719C180.641 101.765 180.461 101.766 180.289 101.72C180.118 101.675 179.961 101.586 179.835 101.461C179.708 101.337 179.617 101.181 179.569 101.01C179.521 100.839 179.519 100.659 179.563 100.487L181.828 91.637L182.048 90.787C182.081 90.6518 182.142 90.525 182.227 90.4143C182.312 90.3038 182.419 90.212 182.541 90.1445C182.663 90.0773 182.798 90.0358 182.936 90.023C183.075 90.01 183.215 90.026 183.348 90.0695C185.138 90.6888 186.774 91.684 188.148 92.9885C189.521 94.293 190.6 95.8763 191.31 97.632Z" fill="white"/>
<path d="M175.045 70.7053C177.439 70.7053 179.38 68.7643 179.38 66.3703C179.38 63.976 177.439 62.0353 175.045 62.0353C172.651 62.0353 170.71 63.976 170.71 66.3703C170.71 68.7643 172.651 70.7053 175.045 70.7053Z" fill="#D7E8F0"/>
<path d="M191.03 75.9473H159.483V76.8148H191.03V75.9473Z" fill="#D7E8F0"/>
<path d="M191.03 79.1572H159.483V80.0247H191.03V79.1572Z" fill="#D7E8F0"/>
<path d="M191.03 82.085H159.483V82.9525H191.03V82.085Z" fill="#D7E8F0"/>
<path d="M108.205 71.3623C108.055 72.0433 107.854 72.7118 107.603 73.3623C106.48 76.3623 104.918 77.0823 103.288 76.7173C102.078 76.4448 100.828 75.5898 99.6825 74.6223C99.5913 74.5313 99.4738 74.4708 99.3468 74.4493C99.2195 74.4278 99.0888 74.4463 98.9725 74.5023C97.1775 75.6698 94.4175 76.3348 92.59 75.8798C91.23 75.5423 90.3875 74.5823 90.84 72.7423C91.0635 71.9565 91.394 71.2053 91.8225 70.5098C93.45 67.7598 95.71 68.5098 97.4175 69.7598C98.098 70.2745 98.7208 70.8613 99.275 71.5098C99.3683 71.6325 99.5035 71.7165 99.6548 71.7455C99.8063 71.7745 99.963 71.7468 100.095 71.6673C102.9 69.7498 109.36 65.8298 108.205 71.3623Z" fill="#185DCF"/>
<path d="M85.11 120.015C85.11 120.015 85.0225 127.125 81.315 127.965H81.3025C72.215 126.6 70.7625 122.573 70.7625 122.573C71.11 115.163 73.18 105.028 74.835 98.9752C73.8475 99.3627 72.88 99.8027 71.9375 100.225C68.57 101.748 65.3075 103.523 62.0975 105.363C60.015 106.555 57.95 107.793 55.9025 109.048C55.71 101.405 51.105 101.423 48.34 100.023C65.84 84.5727 81.0025 76.6827 90.84 72.7352C90.3775 74.5752 91.2225 75.5352 92.59 75.8727C91.7675 78.1802 91.965 80.5177 95.61 81.0727C95.6675 81.0727 95.72 81.0902 95.7775 81.0952C91.64 86.0002 82.8425 99.0852 85.11 120.015Z" fill="#353642"/>
<path d="M117.833 161.143C117.833 161.143 110.665 165.88 97.9775 166C85.29 166.12 71.7275 161.153 71.7275 161.153C68.2275 149.903 70.9975 122.488 70.9975 122.488C70.94 123.558 74.85 125.91 74.85 125.91C74.85 125.91 83.1 129.84 84.7325 124.055C86.365 118.27 85.165 121.908 86.925 124.46C88.685 127.013 89.175 126.333 88.96 130.1C88.745 133.868 91.5625 133.785 92.49 132.078C92.8475 131.425 92.94 130.328 93.27 129.29C93.56 129.33 95.9075 129.595 95.11 126.923C95.8975 126.548 97.0025 126.398 98.575 126.623C104.575 127.485 111.558 125.35 111.558 125.35C119.458 136.655 117.833 161.143 117.833 161.143Z" fill="#185DCF"/>
<path d="M108.343 105.458C108.343 105.458 110.113 102.92 117.79 103.1C117.79 103.1 116.39 93.953 113.48 94.6405C113.48 94.6405 107.958 102.898 108.343 105.458Z" fill="#185DCF"/>
<path d="M111.613 61.1745C111.415 61.257 111.245 61.3245 111.113 61.377L110.875 61.4595H110.86L110.783 61.487H110.768C109.213 60.672 109.36 58.6945 109.36 58.6945C113.63 58.727 113.988 55.217 113.988 55.217C113.69 53.6045 113.268 52.8895 112.488 52.557C111.708 52.2245 110.47 52.2595 108.598 52.1395L108.288 52.117C105.5 51.907 103.828 49.3295 103.1 47.867C102.933 47.5432 102.787 47.2092 102.663 46.867C99.78 48.472 98.1125 50.3845 97.195 51.767C95.465 43.1945 104.318 43.1295 104.318 43.1295C105.779 42.9332 107.26 42.9282 108.723 43.1145C109.063 43.202 109.388 43.2945 109.7 43.3995C109.855 43.4495 110.008 43.502 110.16 43.562C110.313 43.622 110.455 43.6795 110.603 43.7395C110.706 43.7785 110.807 43.8227 110.905 43.872C112.994 44.7965 114.778 46.2945 116.05 48.192C116.068 48.2195 116.085 48.2445 116.098 48.2695C116.156 48.3582 116.209 48.45 116.258 48.5445C119.513 56.842 113.83 60.2095 111.613 61.1745Z" fill="#185DCF"/>
<path d="M111.613 61.1755C110.85 60.2505 110.95 59.0005 110.95 59.0005C115.218 59.033 115.578 55.5205 115.578 55.5205C115.115 53.0505 114.375 52.6855 112.488 52.5605C111.79 52.5105 110.935 52.4955 109.88 52.4205C109.442 52.3895 109.01 52.2962 108.598 52.143C105.598 51.0355 104.25 47.173 104.25 47.173C103.845 47.398 103.458 47.6355 103.1 47.873C102.933 47.5492 102.787 47.2152 102.663 46.873C99.78 48.478 98.1125 50.3905 97.195 51.773C95.465 43.2005 104.318 43.1355 104.318 43.1355C105.779 42.9392 107.26 42.9342 108.723 43.1205C109.063 43.208 109.388 43.3005 109.7 43.4055C109.855 43.4555 110.008 43.508 110.16 43.568C110.313 43.628 110.455 43.6855 110.603 43.7455C110.706 43.7845 110.807 43.8287 110.905 43.878C112.994 44.8025 114.778 46.3002 116.05 48.198C116.068 48.2255 116.085 48.2505 116.098 48.2755C116.156 48.364 116.209 48.456 116.258 48.5505C119.513 56.843 113.83 60.2105 111.613 61.1755Z" fill="#185DCF"/>
<path d="M142.565 82.09C142.648 84.4025 140.155 87.4625 138.685 89.2575C137.395 90.83 136.018 92.41 135.92 92.085C135.92 92.085 135.92 92.0575 135.903 92.045C135.248 89.795 134.403 87.58 133.53 85.415C131.5 80.3725 128.595 75.025 123.98 71.77C123.98 71.77 123.98 71.77 123.968 71.7575C121.288 69.7292 118.053 68.5665 114.695 68.425C114.695 68.425 116.315 64.8975 117.228 62.75C118.14 60.6025 118.478 59.685 118.478 59.685C120.028 54.9575 119.38 49.5325 118.373 48.595C118.363 48.5845 118.351 48.5767 118.338 48.5725C117.403 46.4825 116.013 48.125 116.013 48.125L116.03 48.16C115.615 47.6567 115.169 47.18 114.695 46.7325C114.695 46.6485 114.704 46.5645 114.723 46.4825C114.838 45.8275 115.338 45.3125 115.893 44.93C116.853 44.294 117.992 43.9822 119.143 44.04C122.338 44.145 124.31 45.515 125.548 47.43C126.93 50.26 126.863 53.5625 127.198 56.6225C127.343 57.9525 127.448 60.0075 128.625 60.9275C128.625 60.9275 128.783 65.4975 131.9 70.5125C135.018 75.5275 140.693 79.3225 140.693 79.3225L142.565 82.09Z" fill="#185DCF"/>
<path d="M106.053 60.3455C105.16 61.543 103.785 61.9555 102.45 62.468C99.42 63.6355 96.6725 63.238 95.9925 59.6555C95.555 57.3505 95.4525 54.9905 96.5675 52.8555C97.9025 50.2955 100.255 48.3705 102.66 46.8555C102.66 46.8555 104.748 52.718 110.16 52.173C115.573 51.628 115.335 58.923 108.855 58.673" stroke="black" stroke-width="0.8675" stroke-miterlimit="10"/>
<path d="M114.113 45.9022C113.078 44.9865 111.894 44.2542 110.613 43.7372C110.468 43.67 110.321 43.6107 110.17 43.5597C110.018 43.4997 109.865 43.4472 109.71 43.3972C109.389 43.2852 109.063 43.1902 108.733 43.1122C106.772 42.6177 104.732 42.5207 102.733 42.8272C91.9825 44.4422 96.3575 53.3047 96.3575 53.3047" stroke="black" stroke-width="0.8675" stroke-miterlimit="10"/>
<path d="M115.043 68.435C115.835 65.0225 117.848 62.1 118.753 58.785C119.645 55.5175 119.753 51.7 118.335 48.57C117.4 46.48 116.013 48.125 116.013 48.125" stroke="black" stroke-width="0.8675" stroke-miterlimit="10"/>
<path d="M116.03 48.1603C116.037 48.1695 116.043 48.1795 116.048 48.1903L116.1 48.2703C116.157 48.3578 116.209 48.4488 116.255 48.5428C117.593 50.9203 117.858 53.8178 116.533 56.8903C116.038 58.0093 115.292 58.9988 114.352 59.7818C113.411 60.5645 112.303 61.1193 111.113 61.4028L111.6 67.4028C111.619 67.6615 111.731 67.905 111.914 68.0885C112.098 68.272 112.341 68.3835 112.6 68.4028L114.15 68.5203C117.425 68.8428 120.838 69.6828 123.55 71.4703C123.695 71.5628 123.833 71.6603 123.973 71.7528C123.973 71.7528 123.973 71.7653 123.985 71.7653C128.6 75.0153 131.505 80.3678 133.535 85.4103C134.408 87.5753 135.253 89.7903 135.908 92.0403C135.908 92.0528 135.908 92.0703 135.925 92.0803C137.198 96.4478 137.758 100.95 136.398 105.485C134.61 111.45 129.845 116.105 124.598 119.45C123.183 120.354 121.719 121.179 120.213 121.92C118.993 122.54 117.735 123.088 116.463 123.598C112.825 125.05 109.348 126.098 105.415 126.553C103.526 126.753 101.624 126.794 99.7275 126.675C98.1475 126.583 96.03 126.34 94.6375 127.295C94.424 127.432 94.2328 127.601 94.07 127.795C93.5325 128.415 93.32 129.24 93.15 130.033C92.98 130.825 92.81 131.665 92.34 132.325C91.87 132.985 91.005 133.465 90.2275 133.193C88.9775 132.748 89.02 131.155 88.9775 130.08C88.95 129.49 88.95 128.918 88.9775 128.38C89.2275 122.235 93.82 117.198 99.83 115.925C103.287 115.21 106.641 114.067 109.815 112.523C110.62 112.134 111.405 111.712 112.17 111.255C114.028 110.145 115.808 108.775 116.838 106.87C118.18 104.4 118.058 101.323 117.013 98.7203C115.403 94.6753 111.633 92.2528 109.028 88.9328" stroke="black" stroke-width="0.8675" stroke-miterlimit="10"/>
<path d="M103.362 54.5062C103.544 54.1747 103.464 53.7807 103.184 53.6262C102.903 53.472 102.528 53.6152 102.345 53.9467C102.163 54.2782 102.243 54.672 102.523 54.8265C102.804 54.981 103.179 54.8375 103.362 54.5062Z" fill="#353642"/>
<path d="M98.1848 53.8607C98.367 53.5292 98.2875 53.1352 98.007 52.9807C97.7263 52.8265 97.351 52.9697 97.1685 53.3012C96.986 53.6327 97.0658 54.0265 97.3463 54.181C97.6268 54.3355 98.0023 54.192 98.1848 53.8607Z" fill="#353642"/>
<path d="M117.83 219V236.222C117.83 236.5 117.739 236.771 117.57 236.992C117.401 237.213 117.164 237.372 116.896 237.445C116.627 237.518 116.342 237.501 116.085 237.396C115.827 237.291 115.611 237.104 115.47 236.865C114.72 235.552 113.335 233 111.535 229.615C115.73 227.88 113.098 215.5 113.005 215.06C113.219 215.477 113.544 215.827 113.944 216.071C114.344 216.315 114.804 216.443 115.273 216.442C115.951 216.443 116.601 216.713 117.08 217.192C117.56 217.671 117.829 218.322 117.83 219Z" fill="#353642"/>
<path d="M105.62 230.883C105.418 231.953 105.208 233.033 105 234.133C104.817 235.08 104.31 235.934 103.566 236.549C102.822 237.163 101.888 237.5 100.923 237.5H86.2C85.9403 237.5 85.6883 237.413 85.4843 237.252C85.2803 237.091 85.1363 236.866 85.0753 236.614C85.0145 236.362 85.0403 236.096 85.1485 235.86C85.2568 235.624 85.4415 235.431 85.6725 235.313L93.47 231.333L94.05 231.038C94.05 231.038 99.7825 235 105.62 230.883Z" fill="#353642"/>
<path d="M107.585 106.471C108.898 103.936 112.86 103.221 117.79 103.323" stroke="black" stroke-width="0.8675" stroke-miterlimit="10"/>
<path d="M137.227 115.705L130.477 128.255L132.5 173.627L129.098 171.29L125.825 134.04C125.825 134.04 123.777 119 129.775 115.705C135.772 112.41 137.227 115.705 137.227 115.705Z" fill="white"/>
<path d="M136.95 96.7497C136.947 96.74 136.947 96.7295 136.95 96.7197" stroke="black" stroke-width="0.8675" stroke-miterlimit="10"/>
<path d="M118.337 48.568C117.402 46.4805 116.012 48.128 116.012 48.128C115.642 47.5373 115.21 46.9883 114.722 46.4905C114.527 46.288 114.325 46.098 114.115 45.9005C114.4 44.558 115.562 43.6105 116.865 43.3105C120.28 42.528 124.027 44.298 125.56 47.4405C127.122 50.633 126.902 54.4405 127.585 57.8655C128.335 61.5605 129.292 65.2455 130.93 68.6605C132.317 71.5455 134.21 74.2305 136.65 76.318C138.3 77.7255 140.497 78.643 141.707 80.518C144.812 85.3555 138.67 87.518 136.65 90.793C136.302 91.3463 136.103 91.98 136.072 92.633" stroke="black" stroke-width="0.8675" stroke-miterlimit="10"/>
<path d="M99.205 51.5655C99.205 51.5655 99.5725 53.0655 98.5375 55.2605C98.26 55.8455 99.5375 55.878 99.84 55.9355" stroke="black" stroke-width="0.8675" stroke-miterlimit="10"/>
<path d="M105.094 54.0837C105.681 52.5907 105.174 50.9935 103.961 50.5165C102.748 50.0395 101.289 50.863 100.701 52.3562C100.114 53.8492 100.621 55.4462 101.834 55.9232C103.047 56.4005 104.507 55.5767 105.094 54.0837Z" stroke="black" stroke-width="0.8675" stroke-miterlimit="10"/>
<path d="M99.02 53.4177C99.607 51.9247 99.1 50.3275 97.887 49.8505C96.674 49.3735 95.2148 50.197 94.6275 51.6902C94.0403 53.1832 94.5475 54.7802 95.7605 55.2572C96.9733 55.7345 98.4328 54.9107 99.02 53.4177Z" stroke="black" stroke-width="0.8675" stroke-miterlimit="10"/>
<path d="M97.1225 50.63C97.2663 50.63 97.4088 50.6572 97.5425 50.71C98.3125 51.0125 98.6125 52.0825 98.215 53.095C97.8975 53.9025 97.2 54.465 96.52 54.465C96.3755 54.4662 96.2323 54.4397 96.0975 54.3875C95.33 54.085 95.0275 53.015 95.4275 52C95.745 51.1925 96.4425 50.63 97.1225 50.63ZM97.1225 50.0525C96.2225 50.0525 95.305 50.7275 94.8875 51.7875C94.3725 53.1 94.82 54.505 95.8875 54.925C96.09 55.004 96.3053 55.0447 96.5225 55.045C97.42 55.045 98.3375 54.3675 98.755 53.295C99.27 51.9825 98.825 50.5775 97.755 50.1575C97.5535 50.0792 97.3388 50.0392 97.1225 50.04V50.0525Z" fill="white"/>
<path d="M98.7548 53.3132C99.2713 52 98.8253 50.5955 97.7588 50.176C96.6925 49.7565 95.4093 50.481 94.8928 51.7942C94.3763 53.1072 94.822 54.512 95.8885 54.9312C96.955 55.3507 98.2383 54.6262 98.7548 53.3132Z" fill="#185DCF"/>
<path d="M104.829 53.9793C105.345 52.666 104.899 51.2615 103.833 50.842C102.766 50.4225 101.483 51.147 100.967 52.4603C100.45 53.7733 100.896 55.178 101.962 55.5973C103.029 56.0168 104.312 55.2923 104.829 53.9793Z" fill="#185DCF"/>
<path d="M99.25 52.0748C99.25 52.0748 99.575 51.3898 100.685 52.3498" stroke="black" stroke-width="0.8675" stroke-miterlimit="10"/>
<path d="M187.643 198.345C176.94 200.56 164.815 197.25 154.328 195.167L139.658 192.265C138.065 191.945 136.408 191.605 134.975 190.905C134.908 190.852 134.838 190.795 134.773 190.737C132.16 188.487 131.68 184.685 131.378 181.237C130.778 174.387 130.176 167.542 129.573 160.7C128.821 152.115 128.071 143.532 127.323 134.95C126.81 129.06 126.463 122.552 130.073 117.865C131.64 115.825 134.273 114.592 136.8 115.505C136.948 115.557 137.093 115.617 137.235 115.685C138.198 116.503 138.982 117.512 139.538 118.647C142.683 124.897 141.955 132.775 142.348 139.555C143.06 151.975 142.718 164.395 142.32 176.822C142.273 178.262 141.665 179.697 141.678 181.072C141.678 180.875 142.33 180.615 143.378 180.322C147.525 179.187 157.903 177.607 158.945 177.487C167.814 176.455 176.8 177.182 185.388 179.627C187.509 180.245 189.518 181.196 191.34 182.445C193.563 183.972 195.46 185.945 196.34 188.23C198.583 194.115 192.48 197.337 187.643 198.345Z" fill="#D7E8F0"/>
<path d="M187.643 198.345C176.94 200.56 164.815 197.25 154.328 195.167L139.658 192.265C138.065 191.945 136.408 191.605 134.975 190.905C134.908 190.852 134.838 190.795 134.773 190.737C132.16 188.487 131.68 184.685 131.378 181.237C130.778 174.387 130.176 167.542 129.573 160.7C128.821 152.115 128.071 143.532 127.323 134.95C126.81 129.06 126.463 122.552 130.073 117.865C131.64 115.825 134.273 114.592 136.8 115.505C136.948 115.557 137.093 115.617 137.235 115.685C138.198 116.503 138.982 117.512 139.538 118.647C142.683 124.897 141.955 132.775 142.348 139.555C143.06 151.975 142.718 164.395 142.32 176.822C142.273 178.262 141.665 179.697 141.678 181.072C141.678 180.875 142.33 180.615 143.378 180.322C143.252 180.87 143.185 181.43 143.175 181.992C143.175 181.015 159.13 178.567 160.438 178.417C169.309 177.386 178.297 178.113 186.888 180.557C188.44 181.011 189.935 181.644 191.34 182.445C193.563 183.972 195.46 185.945 196.34 188.23C198.583 194.115 192.48 197.337 187.643 198.345Z" fill="#D7E8F0"/>
<path d="M128.08 159.78L125.818 134.03C125.3 128.14 124.953 121.63 128.568 116.943C130.138 114.903 132.765 113.67 135.298 114.583C137.188 115.265 138.638 116.865 139.548 118.66C142.693 124.91 141.965 132.793 142.355 139.568C143.07 151.993 142.725 164.41 142.325 176.838C142.28 178.278 141.67 179.713 141.685 181.088C141.685 180.113 157.645 177.663 158.95 177.51C167.82 176.479 176.806 177.206 185.395 179.65C189.58 180.835 194.723 184.023 196.348 188.253C198.598 194.118 192.495 197.345 187.658 198.348C176.955 200.568 164.83 197.255 154.343 195.175L139.673 192.268C137.423 191.818 135.038 191.318 133.293 189.813C130.678 187.563 130.2 183.758 129.898 180.313L128.08 159.78Z" stroke="black" stroke-width="0.8675" stroke-miterlimit="10"/>
<path d="M107.333 221.666C108.883 224.623 110.31 227.323 111.538 229.626C113.338 233.011 114.72 235.563 115.47 236.876C115.612 237.115 115.828 237.301 116.086 237.405C116.343 237.509 116.628 237.526 116.896 237.453C117.164 237.381 117.401 237.222 117.57 237.001C117.739 236.781 117.832 236.511 117.833 236.233V219.001C117.832 218.322 117.562 217.672 117.083 217.193C116.603 216.713 115.953 216.444 115.275 216.443C114.806 216.445 114.346 216.317 113.946 216.073C113.545 215.829 113.221 215.478 113.008 215.061C111.712 212.489 110.668 209.798 109.89 207.026" stroke="black" stroke-width="0.8675" stroke-miterlimit="10"/>
<path d="M95.855 199.678C95.5605 189.746 94.3048 179.867 92.105 170.178C91.74 168.606 91.4025 167.09 91.0925 165.63" stroke="black" stroke-width="0.8675" stroke-miterlimit="10"/>
<path d="M92.8625 237.5H100.923C101.888 237.499 102.824 237.162 103.568 236.546C104.312 235.931 104.818 235.075 105 234.127C105.208 233.032 105.418 231.952 105.62 230.877C106.22 227.71 106.791 224.638 107.333 221.66C108.275 216.495 109.113 211.617 109.883 207.02C112.713 189.817 114.333 176.39 115.043 165.635C115.078 165.135 115.108 164.635 115.143 164.135C115.17 163.592 115.2 163.06 115.228 162.532" stroke="black" stroke-width="0.8675" stroke-miterlimit="10"/>
<path d="M77.4225 162.982C79.2225 167.53 80.7675 172.175 82.8325 176.612C86.5575 184.612 91.2325 192.157 95.855 199.677C96.215 210.162 95.6107 220.658 94.05 231.032L93.47 231.327L85.6725 235.307C85.4387 235.424 85.2512 235.617 85.141 235.854C85.0307 236.091 85.004 236.359 85.0652 236.613C85.1265 236.867 85.272 237.093 85.478 237.254C85.684 237.415 85.9385 237.502 86.2 237.5H96.45" stroke="black" stroke-width="0.8675" stroke-miterlimit="10"/>
<path d="M107.18 113.695C106.003 107.085 109.575 100.303 113.863 94.08" stroke="black" stroke-width="0.8675" stroke-miterlimit="10"/>
<path d="M111.803 125.25C111.809 125.255 111.814 125.264 111.815 125.272C112.03 125.772 112.243 126.255 112.453 126.747C113.573 129.335 114.536 131.987 115.338 134.69C115.673 135.86 115.963 137.04 116.195 138.237C117.385 144.31 117.808 150.552 117.873 156.737C117.873 157.86 117.873 158.987 117.855 160.11C117.855 160.457 117.843 160.805 117.833 161.145L117.79 161.17C117.42 161.39 117.04 161.597 116.675 161.8L116.443 161.922C116.046 162.134 115.641 162.336 115.228 162.527C114.146 163.037 113.036 163.483 111.903 163.865C111.053 164.16 110.183 164.415 109.31 164.64C105.06 165.732 100.628 166.08 96.3575 165.982L95.7675 165.965C94.17 165.912 92.6025 165.797 91.0825 165.64C86.4633 165.136 81.8943 164.248 77.4225 162.985C74.4375 162.147 72.4225 161.407 71.8875 161.197L71.7375 161.145C70.2375 152.417 69.9675 143.572 70.1 136.547C70.1 136.497 70.1 136.445 70.1 136.392C70.24 129.547 70.7725 124.462 70.945 122.942C70.9675 122.762 70.985 122.635 70.9925 122.56C71 122.485 70.9925 122.49 70.9925 122.48C71.2908 115.625 72.342 108.824 74.1275 102.2C76.465 93.6075 79.85 86.55 83.46 81.5225" stroke="black" stroke-width="0.8675" stroke-miterlimit="10"/>
<path d="M92.8275 75.7755C92.01 78.083 92.205 80.4205 95.8525 80.9755L96.0175 80.998C99.1825 81.3955 101.31 79.248 103.518 76.618" stroke="black" stroke-width="0.8675" stroke-miterlimit="10"/>
<path d="M114.143 68.5255C112.035 68.9098 110.067 69.8505 108.445 71.2505" stroke="black" stroke-width="0.8675" stroke-miterlimit="10"/>
<path d="M85.3525 119.917C83.0825 98.9845 91.885 85.887 96.0175 80.997" stroke="black" stroke-width="0.8675" stroke-miterlimit="10"/>
<path d="M107.845 73.2495C110.958 64.9045 103.42 69.462 100.345 71.557C100.213 71.636 100.057 71.664 99.9063 71.636C99.7553 71.6078 99.6195 71.5255 99.525 71.4045C98.125 69.777 94.425 66.417 92.07 70.4045C88.1375 77.062 95.6075 76.732 99.2075 74.4045C99.3225 74.348 99.4525 74.3288 99.579 74.3498C99.7055 74.371 99.822 74.4313 99.9125 74.522C102.62 76.7845 105.895 78.482 107.845 73.2495Z" stroke="black" stroke-width="0.8675" stroke-miterlimit="10"/>
<path d="M71 122.475C71 122.475 72.09 125.508 78.32 127.198C79.016 127.386 79.7427 127.431 80.4567 127.331C81.1707 127.232 81.8573 126.989 82.4753 126.618C83.0933 126.247 83.6302 125.755 84.0537 125.172C84.4772 124.588 84.7785 123.925 84.94 123.223C85.181 122.137 85.3165 121.03 85.345 119.918C85.345 119.918 86.2175 124.853 89.055 127.198" stroke="black" stroke-width="0.8675" stroke-miterlimit="10"/>
<path d="M95.33 126.925C95.33 126.925 95.83 129.425 93.2525 129.585" stroke="black" stroke-width="0.8675" stroke-miterlimit="10"/>
<path d="M159.213 196.18V223.817C159.213 225.37 158.74 226.886 157.856 228.162C156.973 229.439 155.721 230.415 154.268 230.962L144.113 234.782C143.803 234.897 143.544 235.117 143.381 235.404C143.218 235.691 143.161 236.026 143.221 236.351C143.28 236.676 143.453 236.969 143.707 237.179C143.962 237.389 144.283 237.503 144.613 237.5H179.613C179.942 237.501 180.261 237.386 180.515 237.176C180.769 236.965 180.94 236.673 181 236.349C181.059 236.025 181.003 235.69 180.841 235.403C180.679 235.116 180.421 234.896 180.113 234.78L169.363 230.762C167.906 230.217 166.65 229.24 165.763 227.962C164.876 226.684 164.401 225.165 164.4 223.61V197.17" stroke="black" stroke-width="0.8675" stroke-miterlimit="10"/>
<path d="M159.213 196.18V223.817C159.213 225.37 158.74 226.886 157.856 228.162C156.973 229.439 155.721 230.416 154.268 230.962L144.113 234.782C143.803 234.897 143.544 235.117 143.381 235.404C143.218 235.691 143.161 236.026 143.221 236.351C143.28 236.676 143.453 236.969 143.707 237.179C143.962 237.389 144.283 237.503 144.613 237.5H179.613C179.942 237.501 180.261 237.386 180.515 237.176C180.769 236.965 180.94 236.673 181 236.349C181.059 236.025 181.003 235.69 180.841 235.403C180.679 235.116 180.421 234.896 180.113 234.78L169.363 230.762C167.906 230.217 166.65 229.24 165.763 227.962C164.876 226.684 164.401 225.165 164.4 223.61V197.17L159.213 196.18Z" fill="#353642"/>
<path d="M91.0975 72.6398C81.5675 76.4523 67.0675 83.9648 50.275 98.4523C49.1233 99.4523 47.9608 100.48 46.7875 101.535C44.4275 103.668 42.03 105.941 39.595 108.355L34.25 113.702C34.0288 113.927 33.899 114.226 33.8853 114.54C33.8718 114.855 33.9755 115.164 34.1768 115.407C34.3778 115.65 34.6618 115.809 34.9735 115.854C35.2855 115.9 35.6033 115.828 35.865 115.652L43.0525 110.795C43.2835 110.639 43.5448 110.533 43.8195 110.484C44.094 110.436 44.376 110.446 44.6465 110.513C44.917 110.581 45.1703 110.705 45.3898 110.877C45.609 111.049 45.7898 111.266 45.92 111.512C45.9858 111.632 46.0233 111.766 46.03 111.902C46.265 113.772 44.03 114.975 42.8425 115.98C42.32 116.415 41.6325 117.25 42.03 117.952C42.35 118.512 43.0525 118.755 43.6675 118.787C45.25 118.872 46.56 117.857 47.815 117.037C49.165 116.14 50.945 112.132 52.315 111.267C59.565 106.675 66.9175 102.505 74.8425 99.1998" stroke="black" stroke-width="0.8675" stroke-miterlimit="10"/>
<path d="M98.1525 59.2252C98.1525 59.2252 99.2 57.1277 101.008 58.7902" stroke="black" stroke-width="0.8675" stroke-miterlimit="10"/>
<path d="M99.9775 63.045L97.675 69.6675" stroke="black" stroke-width="0.8675" stroke-miterlimit="10"/>
<path d="M105.034 39.197C111.183 38.951 116.111 37.3557 116.042 35.6342C115.973 33.9125 110.933 32.716 104.785 32.962C98.6368 33.2077 93.7083 34.803 93.7773 36.5247C93.846 38.2465 98.886 39.4427 105.034 39.197Z" stroke="#CCDDE2" stroke-width="0.868192" stroke-miterlimit="10"/>
<path d="M104.879 37.434C109.703 37.241 113.588 36.4675 113.557 35.7057C113.527 34.9442 109.592 34.4833 104.769 34.6763C99.9462 34.869 96.061 35.6428 96.0915 36.4043C96.1217 37.1658 100.056 37.6267 104.879 37.434Z" stroke="#CCDDE2" stroke-width="0.8675" stroke-miterlimit="10"/>
<path d="M93.7 36.4997C93.42 35.2947 94.39 34.0147 95.1 33.1497C96.4325 31.5372 94.4225 28.9322 96.53 27.6497C96.677 27.5475 96.851 27.491 97.03 27.4872C97.1793 27.503 97.3213 27.5602 97.4398 27.6525C97.5583 27.745 97.6485 27.8687 97.7 28.0097C98.1475 29.0522 97.4275 30.3772 98.6525 31.0447C99.52 31.5222 100.758 31.1047 101.52 30.6172C102.52 29.9697 102.868 28.8672 103.11 27.7572" stroke="#CCDDE2" stroke-width="0.8675" stroke-miterlimit="10"/>
<path d="M104.733 27.2725C104.79 27.6725 104.884 28.0668 105.013 28.45C105.263 30.95 109.15 31.5475 109.87 28.4875C110.003 27.9225 109.968 26.9325 110.645 26.6975C111.225 26.5 111.84 27.015 112.063 27.5225C112.78 29.1225 111.398 30.965 113.345 31.99C114.468 32.5825 115.845 34.2675 115.948 35.61" stroke="#CCDDE2" stroke-width="0.8675" stroke-miterlimit="10"/>
<path d="M103.906 27.901C104.821 27.8645 105.525 26.8777 105.478 25.6972C105.43 24.5167 104.65 23.5894 103.735 23.626C102.819 23.6627 102.115 24.6493 102.163 25.83C102.21 27.0105 102.99 27.9377 103.906 27.901Z" stroke="#CCDDE2" stroke-width="0.868192" stroke-miterlimit="10"/>
<path d="M73.7275 237.497H148.498" stroke="black" stroke-width="0.8675" stroke-miterlimit="10"/>
<defs>
<linearGradient id="paint0_linear_56_1422" x1="152.718" y1="53.6398" x2="152.718" y2="164.132" gradientUnits="userSpaceOnUse">
<stop stop-color="#185DCF"/>
<stop offset="1" stop-color="#00183F"/>
</linearGradient>
</defs>
</svg>
