<svg width="250" height="250" viewBox="0 0 250 250" fill="none" xmlns="http://www.w3.org/2000/svg">
<path d="M161.628 51.4855C163.168 50.4917 164.957 49.9537 166.79 49.933C167.107 49.933 167.418 49.9505 167.723 49.978C167.593 49.433 167.43 48.793 167.223 48.098C166.566 47.7685 165.994 47.2902 165.555 46.7015C165.115 46.1125 164.819 45.429 164.69 44.7055C164.455 44.7462 164.216 44.7672 163.977 44.768C163.126 44.7707 162.292 44.5257 161.577 44.063C161.402 44.025 161.229 43.9765 161.06 43.918C160.836 43.9575 160.61 43.9785 160.382 43.9805C159.226 43.987 158.115 43.538 157.288 42.7305L155.12 43.4805C155.12 43.4805 160.68 46.2855 161.628 51.4855Z" fill="#185DCF"/>
<path d="M162.275 214.302C162.274 218.29 160.689 222.113 157.87 224.933C155.051 227.753 151.227 229.338 147.24 229.34H75.665C71.6772 229.338 67.8532 227.754 65.0332 224.934C62.2135 222.114 60.6287 218.29 60.6275 214.302V58.115C60.6262 56.1392 61.0142 54.1825 61.7692 52.3567C62.5242 50.5312 63.6317 48.872 65.0282 47.4745C66.4247 46.0767 68.0827 44.968 69.908 44.2115C71.733 43.4547 73.6892 43.0652 75.665 43.065H85.23C86.9512 43.0655 88.602 43.7487 89.82 44.965C90.9367 46.0745 91.606 47.556 91.7 49.1275C91.714 49.2577 91.7207 49.3887 91.72 49.52C91.72 49.6325 91.72 49.7425 91.72 49.8525C91.7665 50.8057 92.0135 51.7385 92.445 52.59C92.4575 52.61 92.465 52.6375 92.4775 52.6575C93.0002 53.682 93.797 54.5412 94.779 55.1402C95.761 55.7392 96.8897 56.054 98.04 56.05H124.682C125.536 56.0512 126.382 55.8837 127.171 55.5572C127.96 55.2307 128.677 54.7517 129.28 54.1475C129.741 53.6867 130.127 53.156 130.422 52.575C130.435 52.5642 130.444 52.5505 130.45 52.535C130.889 51.702 131.134 50.7807 131.167 49.84C131.167 49.7575 131.167 49.6825 131.167 49.59C131.187 46.0125 133.917 43.0575 137.5 43.0575H145.577L154.077 42.9525C154.25 41.3275 154.942 39.6175 155.657 38.1075C155.896 37.5847 156.178 37.083 156.5 36.6075H76.2775C73.6875 36.607 71.1227 37.117 68.7297 38.108C66.3367 39.099 64.1622 40.5517 62.3307 42.3832C60.4995 44.2147 59.0467 46.389 58.0557 48.782C57.0645 51.175 56.5547 53.7397 56.555 56.33V217.777C56.5542 220.367 57.064 222.932 58.055 225.326C59.0457 227.719 60.4985 229.893 62.3302 231.725C64.1617 233.556 66.336 235.009 68.7292 236C71.1225 236.991 73.6872 237.5 76.2775 237.5H148.802C151.393 237.5 153.957 236.99 156.351 235.999C158.744 235.008 160.918 233.556 162.75 231.724C164.582 229.893 166.035 227.718 167.026 225.325C168.017 222.932 168.527 220.368 168.527 217.777V206.66L162.277 210.222L162.275 214.302Z" fill="#185DCF"/>
<path d="M164.455 90.543C163.705 89.7705 162.98 90.9705 162.275 90.1505V149.558C162.715 147.936 163.259 146.343 163.902 144.791C164.047 144.451 164.192 144.108 164.342 143.771C164.66 143.073 164.992 142.386 165.342 141.703C165.437 141.508 165.535 141.323 165.637 141.138C165.74 140.953 165.865 140.716 165.982 140.516C166.182 140.151 166.397 139.786 166.617 139.428C166.767 139.158 166.935 138.898 167.1 138.636C167.223 138.428 167.35 138.228 167.485 138.036C167.63 137.801 167.788 137.568 167.94 137.341C168.128 137.058 168.325 136.776 168.52 136.498V94.1805C167.77 93.5955 167.02 92.9805 166.315 92.348C165.673 91.768 165.053 91.168 164.455 90.543Z" fill="#185DCF"/>
<path d="M167.93 49.25C167.065 50.34 165.993 49.425 164.598 49.425C163.328 49.425 162.597 51.48 161.792 50.6525C161.837 50.7625 161.385 52.4025 161.422 52.5125C161.545 52.8425 161.655 53.1875 161.753 53.5325V53.545C161.878 53.9875 161.972 54.4275 162.055 54.8825C162.075 54.985 162.097 55.0975 162.11 55.2075C162.145 55.44 162.18 55.6825 162.2 55.9225C162.227 56.145 162.243 56.3685 162.247 56.5925C162.27 56.8425 162.275 57.115 162.275 57.385V74.885C162.479 75.0555 162.649 75.2632 162.775 75.4975C163.775 77.3225 164.733 75.955 165.803 77.7475C166.373 78.6725 167.552 79.395 168.157 78.725C168.38 78.475 168.518 77.405 168.518 77.005V55.86C168.517 54.856 168.443 53.8533 168.295 52.86C168.25 52.4825 168.01 49.6325 167.93 49.25Z" fill="#185DCF"/>
<path d="M91.7275 49.1777C92.1803 50.02 92.4285 50.9567 92.4525 51.9127C92.0213 51.0622 91.7743 50.1302 91.7275 49.1777Z" fill="#185DCF"/>
<path d="M131.168 49.162C131.134 50.103 130.889 51.0242 130.45 51.857C130.498 50.9185 130.743 50.0005 131.168 49.162Z" fill="#185DCF"/>
<path d="M226.875 125.44C202.99 132.897 190.643 114.632 190.643 114.632C191.545 113.295 190.18 110.78 190.18 110.78L189.35 106.53C178.798 106.012 169.25 95.7272 169.25 95.7272C182.903 93.3072 177.018 85.1297 177.018 85.1297L186.43 92.4997L187.45 92.4097C187.575 79.6597 195.602 73.7047 198.117 71.6872C200.632 69.6697 201.062 71.6722 201.062 71.6722C201.062 71.6722 199.958 75.7522 204.673 76.3172C209.388 76.8822 212.84 72.4647 212.84 72.4647C214.457 68.8397 216.32 71.0872 216.32 71.0872C224.402 75.3872 225.865 86.0272 227.6 93.4622C228.798 98.5572 231.078 109.537 232.6 114.887C233.133 116.739 233.026 118.716 232.298 120.5C231.812 121.671 231.074 122.72 230.137 123.574C229.2 124.428 228.086 125.065 226.875 125.44Z" fill="#353642"/>
<path d="M226.875 125.44C202.99 132.897 190.643 114.632 190.643 114.632C191.545 113.295 190.18 110.78 190.18 110.78L189.35 106.53C178.798 106.012 169.25 95.7272 169.25 95.7272C178.295 91.2047 177.018 85.1297 177.018 85.1297L186.43 92.4997L187.45 92.4097C187.575 79.6597 195.602 73.7047 198.117 71.6872C200.632 69.6697 201.062 71.6722 201.062 71.6722C201.062 71.6722 199.958 75.7522 204.673 76.3172C209.388 76.8822 212.84 72.4647 212.84 72.4647C214.457 68.8397 216.32 71.0872 216.32 71.0872C224.402 75.3872 225.865 86.0272 227.6 93.4622C228.798 98.5572 231.078 109.537 232.6 114.887C233.133 116.739 233.026 118.716 232.298 120.5C231.812 121.671 231.074 122.72 230.137 123.574C229.2 124.428 228.086 125.065 226.875 125.44Z" fill="#353642"/>
<path d="M198.723 61.0555C200.215 61.0555 201.425 59.8455 201.425 58.353C201.425 56.8603 200.215 55.6505 198.723 55.6505C197.23 55.6505 196.02 56.8603 196.02 58.353C196.02 59.8455 197.23 61.0555 198.723 61.0555Z" fill="#D7E8F0"/>
<path d="M202.405 63.795C202.17 65.525 200.702 66.655 199.172 66.405" stroke="black" stroke-width="1.0325" stroke-miterlimit="10"/>
<path d="M184.29 48.7247C184.547 49.9007 185.166 50.9662 186.061 51.7712C186.956 52.5765 188.081 53.0805 189.277 53.2122C189.387 52.7315 189.612 52.2845 189.932 51.9097C191.297 50.3572 191.815 53.3272 196.135 51.2897C202.135 48.4572 204.342 50.1922 204.342 50.1922C204.537 50.3447 204.487 51.7097 204.51 51.9422C204.64 53.3547 204.76 54.7622 204.907 56.1747C204.992 57.0347 205.075 57.8897 205.157 58.7447C205.241 58.6022 205.333 58.4645 205.432 58.3322C206.012 56.4297 207.625 54.2022 209.682 55.2172C210.101 55.4302 210.462 55.7395 210.737 56.1197C212.08 57.9597 210.987 59.6897 209.53 60.9572C209.16 61.3522 208.748 61.706 208.302 62.0122C208.53 62.5122 209.462 64.4772 209.462 64.4847C209.557 64.6847 213.025 60.9147 213.285 60.5022C213.684 59.4855 213.908 58.4087 213.947 57.3172C214.092 52.8322 212.37 47.5672 208.785 44.9272C207.897 44.2722 207.587 43.6522 207.535 42.7847C207.532 42.738 207.515 42.6932 207.486 42.6562C207.458 42.6192 207.418 42.5917 207.374 42.5775C207.329 42.5632 207.281 42.5627 207.237 42.576C207.192 42.5892 207.152 42.616 207.122 42.6522C205.957 43.9422 203.14 43.7547 203.14 43.7547C193.39 41.1097 190.025 45.3947 188.04 46.1272C187.232 46.416 186.348 46.416 185.54 46.1272C185.487 46.3965 185.362 46.646 185.177 46.8487C184.992 47.0515 184.755 47.1997 184.492 47.2772L184.535 47.7322C184.571 48.0815 184.484 48.4322 184.29 48.7247Z" fill="#185DCF"/>
<path d="M205.21 67.0972C204.568 67.5972 202.772 69.0372 202.055 69.4647C201.529 69.7827 200.976 70.0545 200.402 70.2772C196.087 71.9047 192.042 68.2047 190.56 64.5022C189.34 61.4497 189.06 58.0397 189.148 54.7797C189.163 54.4422 189.175 54.0972 189.202 53.7522C189.199 53.7315 189.199 53.7102 189.202 53.6897C189.216 53.5325 189.239 53.3762 189.273 53.2222C189.381 52.741 189.606 52.2937 189.928 51.9197C191.29 50.3697 191.808 53.3397 196.128 51.2997C202.128 48.4672 204.337 50.2022 204.337 50.2022C204.53 50.3547 204.48 51.7197 204.503 51.9522C204.633 53.3672 204.752 54.7722 204.902 56.1847C204.985 57.0472 205.067 57.8997 205.152 58.7547C205.172 58.9897 205.195 59.2172 205.215 59.4497C205.245 59.0715 205.317 58.6975 205.428 58.3347C206.008 56.4322 207.62 54.2072 209.678 55.2197C210.096 55.4327 210.457 55.742 210.732 56.1222C212.075 57.9622 210.982 59.6922 209.525 60.9597C209.155 61.277 208.764 61.5692 208.355 61.8347L208.245 61.9047L208.3 62.0147C208.528 62.5147 209.458 64.4822 209.458 64.4872C209.553 64.6872 213.02 60.9197 213.283 60.5047C214.186 59.1107 214.751 57.5255 214.935 55.8747C214.957 55.6672 214.97 55.4672 214.977 55.2597C215.122 50.7747 213.4 45.5097 209.815 42.8697C208.925 42.2147 208.615 41.5947 208.565 40.7272C208.562 40.6805 208.545 40.6357 208.516 40.5987C208.488 40.5617 208.449 40.5342 208.404 40.52C208.36 40.5055 208.312 40.505 208.267 40.5185C208.222 40.5317 208.182 40.5582 208.152 40.5947C206.987 41.8847 204.167 41.6972 204.167 41.6972C194.43 39.0522 191.052 43.3372 189.07 44.0697C187.087 44.8022 185.348 43.4497 185.348 43.4497L185.555 45.6672C185.569 45.8192 185.559 45.9727 185.527 46.1222C185.475 46.3912 185.349 46.6407 185.165 46.8435C184.98 47.0462 184.743 47.1945 184.48 47.2722C184.38 47.3085 184.276 47.3295 184.17 47.3347H184.092C184.111 47.7965 184.172 48.256 184.273 48.7072C184.53 49.885 185.152 50.9517 186.049 51.757C186.946 52.5625 188.074 53.0652 189.273 53.1947" stroke="black" stroke-width="1.0325" stroke-miterlimit="10"/>
<path d="M190.645 60.7898C192.138 60.7898 193.348 59.5798 193.348 58.0873C193.348 56.5948 192.138 55.3848 190.645 55.3848C189.153 55.3848 187.943 56.5948 187.943 58.0873C187.943 59.5798 189.153 60.7898 190.645 60.7898Z" fill="#D7E8F0"/>
<path d="M199.85 59.3625C199.852 59.5822 199.788 59.7977 199.667 59.9812C199.546 60.1647 199.373 60.3082 199.17 60.3932C198.967 60.4785 198.744 60.5015 198.528 60.4595C198.312 60.4175 198.114 60.3125 197.958 60.1575C197.802 60.0025 197.695 59.8047 197.652 59.5892C197.609 59.3737 197.63 59.1502 197.714 58.947C197.798 58.7437 197.94 58.57 198.123 58.4475C198.305 58.3252 198.52 58.26 198.74 58.26C198.848 58.2577 198.955 58.2737 199.058 58.3075C199.004 58.3582 198.962 58.419 198.932 58.4865C198.902 58.5537 198.886 58.6265 198.885 58.7C198.886 58.8417 198.944 58.977 199.044 59.0767C199.145 59.1765 199.281 59.2325 199.423 59.2325C199.494 59.2322 199.565 59.2172 199.63 59.1882C199.695 59.1595 199.754 59.1175 199.803 59.065C199.835 59.1607 199.851 59.2612 199.85 59.3625Z" fill="black"/>
<path d="M191.993 59C191.992 59.2185 191.927 59.4317 191.805 59.613C191.684 59.7945 191.511 59.9357 191.309 60.019C191.108 60.1022 190.886 60.124 190.671 60.0812C190.457 60.0385 190.261 59.9332 190.106 59.779C189.952 59.6245 189.847 59.428 189.804 59.2137C189.761 58.9997 189.783 58.7777 189.866 58.576C189.95 58.374 190.091 58.2015 190.272 58.0797C190.453 57.9582 190.667 57.893 190.885 57.8925C191.029 57.8917 191.172 57.9197 191.305 57.975C191.23 58.0252 191.168 58.0927 191.124 58.172C191.081 58.251 191.057 58.3397 191.055 58.43C191.055 58.5002 191.07 58.5695 191.097 58.6342C191.124 58.699 191.164 58.7575 191.214 58.8067C191.264 58.856 191.323 58.895 191.388 58.9212C191.453 58.9475 191.522 58.9607 191.593 58.96C191.662 58.961 191.73 58.948 191.794 58.9217C191.858 58.8955 191.916 58.8567 191.965 58.8075C191.982 58.8705 191.991 58.935 191.993 59Z" fill="black"/>
<path d="M194.735 58.3095C194.735 58.3095 194.043 61.387 193.96 61.697C193.71 62.697 195.695 62.387 195.695 62.387" stroke="black" stroke-width="1.0325" stroke-miterlimit="10"/>
<path d="M197.275 52.5003C197.275 52.5003 200.537 51.2778 202.352 53.7278" stroke="black" stroke-width="1.0325" stroke-miterlimit="10"/>
<path d="M186.43 54.9477C186.43 54.9477 188.11 51.8952 191.08 52.5727" stroke="black" stroke-width="1.0325" stroke-miterlimit="10"/>
<path d="M198.723 61.5452C200.486 61.5452 201.915 60.1157 201.915 58.3527C201.915 56.5895 200.486 55.1602 198.723 55.1602C196.959 55.1602 195.53 56.5895 195.53 58.3527C195.53 60.1157 196.959 61.5452 198.723 61.5452Z" stroke="black" stroke-width="1.0325" stroke-miterlimit="10"/>
<path d="M190.645 61.2795C192.408 61.2795 193.838 59.8502 193.838 58.087C193.838 56.3237 192.408 54.8945 190.645 54.8945C188.882 54.8945 187.453 56.3237 187.453 58.087C187.453 59.8502 188.882 61.2795 190.645 61.2795Z" stroke="black" stroke-width="1.0325" stroke-miterlimit="10"/>
<path d="M190.643 55.9173H190.715C191.29 55.9265 191.838 56.1638 192.238 56.5768C192.637 56.99 192.857 57.545 192.848 58.1198C192.838 58.6948 192.601 59.2423 192.188 59.6423C191.775 60.042 191.22 60.2615 190.645 60.2523H190.577C190.003 60.243 189.455 60.0058 189.055 59.5928C188.655 59.1798 188.436 58.6248 188.445 58.0498C188.454 57.475 188.691 56.9273 189.104 56.5273C189.518 56.1275 190.073 55.908 190.648 55.9173H190.643ZM190.648 55.3998C189.936 55.3883 189.248 55.66 188.736 56.1553C188.224 56.6505 187.93 57.329 187.919 58.041C187.907 58.753 188.179 59.4408 188.674 59.9525C189.17 60.4643 189.848 60.7583 190.56 60.7698H190.65C191.362 60.7813 192.05 60.5095 192.561 60.0143C193.073 59.519 193.367 58.8408 193.379 58.1285C193.39 57.4165 193.118 56.7288 192.623 56.217C192.128 55.7055 191.45 55.4113 190.738 55.3998H190.648Z" fill="white"/>
<path d="M195.53 58.2475L193.835 58.1925" stroke="black" stroke-width="1.0325" stroke-miterlimit="10"/>
<path d="M197.925 172.623L194.535 193.388L190.863 192.838C190.067 192.713 189.353 192.279 188.874 191.632C188.396 190.985 188.191 190.175 188.305 189.378L188.577 187.15L191.077 168.825C195.147 171.21 197.925 172.623 197.925 172.623Z" fill="#185DCF"/>
<path d="M181.153 199.46L168.528 206.71L162.278 210.308L160.363 211.41C160.366 211.374 160.366 211.337 160.363 211.3L158.863 212.155L156.933 208.448C156.482 207.592 156.386 206.593 156.666 205.667C156.947 204.741 157.58 203.962 158.43 203.5L180.305 191.523L180.325 191.723L181.153 199.46Z" fill="#185DCF"/>
<path d="M162.69 148.145C162.552 147.96 162.415 147.78 162.275 147.622C161.482 146.67 160.705 146.03 160.18 144.947C159.761 144.066 159.641 143.073 159.836 142.117C160.031 141.161 160.532 140.294 161.262 139.648C161.565 139.387 161.901 139.169 162.262 139" stroke="black" stroke-width="1.0325" stroke-miterlimit="10"/>
<path d="M189.313 181.453L188.578 187.145L188.295 189.373C188.182 190.17 188.386 190.98 188.865 191.627C189.343 192.275 190.057 192.708 190.853 192.833L194.525 193.383L197.915 172.618C197.915 172.618 195.138 171.205 191.073 168.815C188.165 167.105 184.573 164.893 180.888 162.343" stroke="black" stroke-width="1.0325" stroke-miterlimit="10"/>
<path d="M188.688 186.37C188.688 186.37 184.722 184.233 179.688 181.155" stroke="black" stroke-width="1.0325" stroke-miterlimit="10"/>
<g opacity="0.68">
<path opacity="0.68" d="M162.275 90.4672V149.557C161.18 153.602 160.658 157.807 160.38 162.037V90.6172C160.995 91.4172 161.627 89.7022 162.275 90.4672Z" fill="#D7E8F0"/>
<path opacity="0.68" d="M162.275 210.223V213.62C162.274 217.608 160.689 221.432 157.87 224.251C155.051 227.071 151.227 228.656 147.24 228.658H75.665C71.6773 228.656 67.8533 227.072 65.0333 224.252C62.2135 221.432 60.6288 217.608 60.6275 213.62V57.4328C60.6263 55.457 61.0143 53.5005 61.7693 51.6748C62.5243 49.849 63.6318 48.19 65.0283 46.7923C66.4248 45.3948 68.0828 44.286 69.908 43.5293C71.733 42.7728 73.6893 42.3833 75.665 42.3828H85.23C85.669 42.384 86.1068 42.4275 86.5375 42.5127C86.8255 42.5732 87.1095 42.6517 87.3875 42.7477C87.51 42.7952 87.6375 42.8427 87.7525 42.8927C87.9475 42.9737 88.1378 43.0655 88.3225 43.1678C88.5448 43.2878 88.7593 43.4212 88.965 43.5677C89.1025 43.6627 89.2325 43.7603 89.3575 43.8628C89.4825 43.9653 89.675 44.1402 89.82 44.2827L90.82 45.5728C90.9118 45.7265 90.9953 45.8852 91.07 46.0477L91.435 46.9702C91.485 47.1377 91.5325 47.3027 91.5675 47.4702L91.6575 47.9927C91.67 48.0627 91.6775 48.1377 91.685 48.2077C91.6875 48.242 91.6875 48.2762 91.685 48.3102C91.7 48.4752 91.7125 48.6352 91.7125 48.8102V48.8778C91.7125 48.9828 91.7125 49.0778 91.7125 49.1753C91.706 49.1595 91.6968 49.1453 91.685 49.1328C91.403 48.598 91.0405 48.1097 90.61 47.6852C89.4388 46.513 87.8498 45.8537 86.1925 45.8527H76.995C75.0925 45.8537 73.2088 46.2297 71.4515 46.959C69.6943 47.6885 68.098 48.757 66.7538 50.1037C65.4098 51.4502 64.3443 53.0485 63.6183 54.8073C62.8923 56.5658 62.5198 58.4502 62.5225 60.3527V210.713C62.5225 214.552 64.047 218.234 66.761 220.949C69.4748 223.665 73.156 225.191 76.995 225.193H145.91C149.626 225.192 153.199 223.762 155.889 221.198C158.58 218.635 160.18 215.134 160.36 211.423C160.364 211.386 160.364 211.349 160.36 211.313L162.275 210.223Z" fill="#D7E8F0"/>
<path opacity="0.68" d="M130.45 51.8575C130.45 51.9525 130.45 52.0425 130.45 52.14C130.441 53.7915 129.778 55.3722 128.607 56.5367C127.436 57.7012 125.852 58.355 124.2 58.355H98.5425C95.085 58.355 92.4725 55.53 92.4575 52.07C92.4575 52.015 92.4575 51.9675 92.4575 51.9125C92.9738 52.9542 93.7715 53.8307 94.7605 54.4422C95.7493 55.0537 96.8898 55.376 98.0525 55.3725H124.683C125.536 55.3737 126.382 55.2062 127.171 54.8797C127.96 54.5532 128.677 54.0742 129.28 53.47C129.752 52.997 130.147 52.4527 130.45 51.8575Z" fill="#D7E8F0"/>
</g>
<path d="M168.527 115.982C177.42 114.175 186.053 112.307 190.643 112.37" stroke="black" stroke-width="1.0325" stroke-miterlimit="10"/>
<path d="M160.12 167.499C146.64 156.637 134.407 142.704 139.665 130.567C142.827 123.249 152.187 119.262 162.275 117.099" stroke="black" stroke-width="1.0325" stroke-miterlimit="10"/>
<path d="M189.415 107.015C189.635 107.807 190.643 112.372 190.89 113.197C191.805 116.175 180.16 124.052 178.188 125.822C174.648 128.98 171.298 132.535 168.528 136.497C166.686 139.083 165.135 141.864 163.903 144.79C163.259 146.343 162.716 147.935 162.275 149.557C161.18 153.602 160.658 157.807 160.38 162.037C160.16 165.242 160.078 168.46 159.988 171.602C159.803 177.632 159.898 183.697 160.293 189.707C160.32 190.087 160.348 190.457 160.38 190.837C160.692 194.407 161.296 197.944 162.188 201.415V201.437" stroke="black" stroke-width="1.0325" stroke-miterlimit="10"/>
<path d="M187.693 92.93C188.07 81.2225 193.385 74.9725 198.117 71.68C199.038 71.049 200.026 70.5215 201.062 70.1075" stroke="black" stroke-width="1.0325" stroke-miterlimit="10"/>
<path d="M214.052 70.0303C214.272 70.1128 214.485 70.2028 214.7 70.2928L214.935 70.3953C215.454 70.6215 215.96 70.877 216.45 71.1603C218.142 72.1245 219.619 73.4235 220.792 74.9778C220.838 75.0218 220.875 75.0735 220.902 75.1303C221.107 75.4203 221.307 75.7153 221.502 76.0203C223.232 78.7703 224.845 82.4828 226.077 86.7703C226.713 88.97 227.221 91.2045 227.6 93.4628" stroke="black" stroke-width="1.0325" stroke-miterlimit="10"/>
<path d="M227.6 93.46C228.797 98.555 231.08 109.537 232.6 114.885C233.133 116.737 233.026 118.715 232.297 120.5C231.812 121.671 231.074 122.72 230.137 123.574C229.2 124.428 228.086 125.065 226.875 125.44L222.352 126.535C221.879 126.652 221.461 126.929 221.17 127.32C220.144 128.676 219.005 129.944 217.767 131.11C198.202 149.53 174.66 130.462 180.305 191.527L180.325 191.727C180.553 194.172 180.829 196.75 181.152 199.46L168.527 206.66L162.277 210.222L160.37 211.312L158.87 212.167L156.94 208.46C156.485 207.604 156.386 206.602 156.665 205.673C156.944 204.745 157.578 203.963 158.43 203.5L160.38 202.417L162.187 201.417L162.275 201.37L168.525 197.91L169.855 197.16" stroke="black" stroke-width="1.0325" stroke-miterlimit="10"/>
<path d="M168.53 206.66V217.093C168.529 222.325 166.45 227.343 162.75 231.042C159.05 234.742 154.032 236.82 148.8 236.82H74.1025C71.5118 236.82 68.946 236.31 66.5522 235.319C64.1585 234.328 61.9835 232.875 60.1515 231.043C58.3193 229.211 56.866 227.036 55.8745 224.643C54.8828 222.249 54.3725 219.683 54.3725 217.093V54.5302C54.3725 51.9392 54.8828 49.374 55.8745 46.9802C56.866 44.5867 58.3193 42.4117 60.1515 40.58C61.9835 38.748 64.1585 37.295 66.5522 36.3037C68.946 35.3125 71.5118 34.8025 74.1025 34.8027H157.875" stroke="black" stroke-width="1.0325" stroke-miterlimit="10"/>
<path d="M168.527 54.5298C168.529 53.176 168.392 51.8257 168.12 50.4997C168.12 50.4997 167.755 48.2922 167.405 47.6797" stroke="black" stroke-width="1.0325" stroke-miterlimit="10"/>
<path d="M168.527 136.49V115.988V94.6055" stroke="black" stroke-width="1.0325" stroke-miterlimit="10"/>
<path d="M168.527 54.5322V66.0997V79.8372" stroke="black" stroke-width="1.0325" stroke-miterlimit="10"/>
<path d="M188.577 85.9998V85.9823C186.441 85.0245 184.427 83.815 182.577 82.3798C174.858 76.4408 169.795 67.6943 168.49 58.0423C168.457 57.804 168.427 57.564 168.4 57.3223" stroke="black" stroke-width="1.0325" stroke-miterlimit="10"/>
<path d="M162.28 143.807V90.4473" stroke="black" stroke-width="1.0325" stroke-miterlimit="10"/>
<path d="M162.28 75.4555V57.4355C162.28 54.153 161.992 50.263 160.225 47.7855C160.225 47.7855 155.937 42.378 151.58 42.378H137.675" stroke="black" stroke-width="1.0325" stroke-miterlimit="10"/>
<path d="M143.277 42.378H137.675C135.951 42.378 134.298 43.0627 133.079 44.2817C131.86 45.5007 131.175 47.154 131.175 48.878C131.175 50.6017 130.49 52.2552 129.271 53.474C128.052 54.693 126.399 55.378 124.675 55.378H98.22C96.496 55.378 94.8427 54.693 93.6237 53.474C92.4047 52.2552 91.72 50.6017 91.72 48.878C91.72 47.154 91.0352 45.5007 89.8162 44.2817C88.5972 43.0627 86.944 42.378 85.22 42.378H75.665C71.6738 42.3805 67.8468 43.9682 65.026 46.792C62.205 49.6157 60.6212 53.4442 60.6225 57.4355V213.62C60.6245 217.609 62.21 221.434 65.0307 224.254C67.8512 227.074 71.6763 228.659 75.665 228.66H147.238C151.226 228.659 155.051 227.074 157.872 224.254C160.692 221.434 162.278 217.609 162.28 213.62V210.225" stroke="black" stroke-width="1.0325" stroke-miterlimit="10"/>
<path d="M166.99 35.7305C169.712 36.8955 172.255 40.748 173.49 43.3255C175.78 48.108 177.777 51.768 180.49 56.3255C182.812 60.233 184.942 64.4655 188.595 67.3255C190.528 68.861 192.882 69.7737 195.345 69.943" stroke="black" stroke-width="1.0325" stroke-miterlimit="10"/>
<path d="M93.0775 42.3823C93.0753 47.7813 91.6105 53.0788 88.839 57.7123C86.0675 62.3455 82.0925 66.1415 77.3368 68.697C72.5807 71.2525 67.2215 72.4723 61.828 72.226C56.4345 71.98 51.2085 70.2775 46.705 67.2998C40.8688 62.3883 37.1318 55.4308 36.26 47.8528C35.3883 40.2748 37.4475 32.6505 42.016 26.542C46.5845 20.4335 53.3163 16.3035 60.8315 14.9984C68.347 13.6932 76.077 15.3117 82.4375 19.5222C85.7738 22.3237 88.4553 25.8223 90.2935 29.7718C92.1318 33.7213 93.082 38.0258 93.0775 42.3823Z" fill="#185DCF"/>
<path d="M121.995 107.525L100.215 110.808C99.6867 110.943 99.1345 110.956 98.6005 110.845C98.0665 110.734 97.565 110.503 97.1342 110.168C96.7032 109.834 96.3547 109.406 96.1147 108.916C95.8747 108.426 95.75 107.888 95.75 107.343L98.0275 88.628H130.51C130.775 88.628 131.029 88.7332 131.217 88.9207C131.405 89.1082 131.51 89.3627 131.51 89.628L128.402 101.353C127.961 102.849 127.138 104.204 126.015 105.286C124.891 106.368 123.506 107.14 121.995 107.525Z" fill="#D7E8F0"/>
<path d="M103.402 122.042C105.453 122.042 107.115 120.38 107.115 118.33C107.115 116.279 105.453 114.617 103.402 114.617C101.352 114.617 99.69 116.279 99.69 118.33C99.69 120.38 101.352 122.042 103.402 122.042Z" fill="#D7E8F0"/>
<path d="M117.498 122.042C119.548 122.042 121.21 120.38 121.21 118.33C121.21 116.279 119.548 114.617 117.498 114.617C115.447 114.617 113.785 116.279 113.785 118.33C113.785 120.38 115.447 122.042 117.498 122.042Z" fill="#D7E8F0"/>
<path d="M100.975 92.5495L97.5925 92.097L98.5425 84.982C98.6027 84.5392 98.566 84.0882 98.435 83.661C98.3037 83.2335 98.0812 82.8397 97.7827 82.5067C97.4845 82.174 97.1172 81.91 96.7065 81.733C96.296 81.556 95.852 81.4705 95.405 81.482L92.49 81.557C92.0375 81.5685 91.599 81.3997 91.271 81.088C90.9427 80.7762 90.7517 80.347 90.74 79.8945C90.734 79.6707 90.7722 79.4477 90.8525 79.2387C90.9325 79.0295 91.0532 78.8382 91.2075 78.6757C91.3615 78.5132 91.5462 78.3825 91.7507 78.2915C91.9555 78.2002 92.176 78.1505 92.4 78.1445L95.3175 78.0695C96.3357 78.0375 97.347 78.2472 98.2682 78.6817C99.1897 79.1165 99.9947 79.7635 100.617 80.5695C101.157 81.2892 101.548 82.109 101.767 82.9812C101.986 83.8532 102.03 84.7605 101.895 85.6495L100.975 92.5495Z" fill="#D7E8F0"/>
<path d="M138.03 132.918H84.875C81.9258 132.918 79.535 135.309 79.535 138.258V152.04C79.535 154.99 81.9258 157.38 84.875 157.38H138.03C140.979 157.38 143.37 154.99 143.37 152.04V138.258C143.37 135.309 140.979 132.918 138.03 132.918Z" fill="#D7E8F0"/>
<path d="M59.635 171.908C66.535 169.908 72.455 162.355 64.17 156.105C63.8675 155.885 63.585 155.685 63.315 155.525C63.7692 155.08 64.3267 154.755 64.9375 154.578C65.5482 154.402 66.1932 154.379 66.815 154.513C66.835 154.513 66.8625 154.513 66.8825 154.528C66.9255 154.532 66.9677 154.543 67.0075 154.56C67.91 154.768 68.9175 155.258 70.04 156.105C78.3125 162.355 66.8725 170.468 59.635 171.908Z" fill="#185DCF"/>
<path d="M93.75 138.698C95.0838 138.497 96.4312 138.402 97.78 138.413C99.5975 138.413 100.695 138.546 101.68 139.038C102.194 139.258 102.631 139.625 102.938 140.093C103.244 140.561 103.406 141.109 103.402 141.668C103.402 142.728 102.815 143.771 101.32 144.338V144.376C102.872 144.811 103.82 145.966 103.82 147.481C103.821 148.028 103.691 148.568 103.44 149.055C103.19 149.543 102.826 149.963 102.38 150.281C101.432 151.001 99.845 151.418 97.13 151.418C96.003 151.441 94.8762 151.365 93.7625 151.191L93.75 138.698ZM97.1375 143.411H97.8275C99.285 143.411 99.9875 142.911 99.9875 142.086C99.9875 141.336 99.4175 140.876 98.265 140.876C97.891 140.869 97.5172 140.894 97.1475 140.951L97.1375 143.411ZM97.1375 148.883C97.4647 148.916 97.7937 148.928 98.1225 148.918C99.2575 148.918 100.222 148.463 100.222 147.331C100.222 146.251 99.2375 145.831 97.95 145.831H97.1375V148.883Z" fill="white"/>
<path d="M109.105 138.5V145.75C109.105 147.68 109.77 148.75 111.105 148.75C112.44 148.75 113.13 147.765 113.13 145.75V138.5H116.578V145.55C116.578 149.488 114.608 151.473 111.03 151.473C107.548 151.473 105.693 149.563 105.693 145.473V138.5H109.105Z" fill="white"/>
<path d="M121.872 151.265V146.117L117.86 138.5H121.777L122.855 141.378C123.197 142.268 123.442 142.91 123.727 143.742H123.765C124.015 142.967 124.265 142.243 124.58 141.378L125.62 138.5H129.48L125.297 145.977V151.258L121.872 151.265Z" fill="white"/>
<path d="M66.8275 154.512C66.206 154.379 65.5607 154.401 64.95 154.578C64.3392 154.755 63.7817 155.08 63.3275 155.525C59.1175 159.31 58.925 171.907 58.925 171.907H57.8075C57.8075 171.907 55.1075 157.242 59.11 154.787H59.125C59.1925 154.76 59.4775 154.635 59.875 154.497C59.875 154.497 59.895 154.497 59.9025 154.497C60.4207 154.319 60.956 154.194 61.5 154.125C63.285 153.964 65.0845 154.095 66.8275 154.512Z" fill="#D7E8F0"/>
<path d="M93.0775 42.383C93.0767 49.186 90.7548 55.7852 86.495 61.0895C82.235 66.3937 76.2927 70.0857 69.6502 71.555C63.0077 73.024 56.0628 72.1825 49.9633 69.1695C43.864 66.1562 38.9755 61.152 36.1058 54.9837C33.2363 48.8155 32.5573 41.8527 34.1815 35.2462C35.8058 28.64 39.6358 22.7857 45.0383 18.6512C50.4408 14.5167 57.0925 12.3496 63.8938 12.5081C70.695 12.6666 77.2385 15.1413 82.4425 19.5229C85.7742 22.3278 88.4525 25.8272 90.2897 29.776C92.1267 33.725 93.0782 38.0277 93.0775 42.383Z" stroke="black" stroke-width="1.0325" stroke-miterlimit="10"/>
<path d="M52.385 197.365V210.365H23.135C22.7914 210.366 22.4512 210.297 22.1342 210.165C21.8173 210.032 21.5301 209.837 21.2894 209.592C21.0486 209.347 20.8592 209.056 20.7323 208.737C20.6053 208.418 20.5433 208.076 20.55 207.733L20.695 199.91C20.7074 199.233 20.9854 198.588 21.4689 198.114C21.9524 197.64 22.6028 197.374 23.28 197.375L52.385 197.365Z" fill="#D7E8F0"/>
<path d="M98.7875 199.948V207.77C98.7875 208.456 98.5152 209.113 98.0302 209.598C97.5455 210.083 96.888 210.355 96.2025 210.355H52.385V197.355H96.2025C96.5425 197.355 96.8792 197.422 97.1935 197.553C97.5075 197.683 97.793 197.874 98.033 198.115C98.2732 198.356 98.4635 198.642 98.593 198.956C98.7222 199.271 98.7885 199.608 98.7875 199.948Z" fill="#185DCF"/>
<path d="M56.79 210.355V236.818H28.7625C27.568 236.815 26.4227 236.341 25.5762 235.498C24.7297 234.655 24.2504 233.512 24.2425 232.318V210.368L56.79 210.355Z" fill="#D7E8F0"/>
<path d="M93.755 210.355V232.305C93.747 233.5 93.2678 234.643 92.4213 235.486C91.5748 236.328 90.4295 236.803 89.235 236.805H56.79V210.355H93.755Z" fill="#185DCF"/>
<path d="M56.5475 32.3C59.87 32.3 61.67 34.71 61.67 37.645C61.67 41.3825 59.1225 43.395 56.3825 43.395C53.445 43.395 51.2025 41.235 51.2025 37.9675C51.2025 34.895 53.17 32.29 56.52 32.29L56.5475 32.3ZM56.4375 34.96C55.3025 34.96 54.8575 36.2325 54.8575 37.8675C54.8575 39.5825 55.385 40.7475 56.4925 40.7475C57.4925 40.7475 58.015 39.7775 58.015 37.8675C58.015 36.205 57.6 34.96 56.465 34.96H56.4375ZM56.77 50.91L67.02 32.3575H69.5775L59.3575 50.91H56.77ZM70.0625 39.7775C73.385 39.7775 75.185 42.185 75.185 45.1225C75.185 48.86 72.6375 50.8725 69.895 50.8725C66.96 50.8725 64.7175 48.7125 64.7175 45.4175C64.7175 42.37 66.6825 39.7675 70.035 39.7675L70.0625 39.7775ZM69.95 42.4375C68.815 42.4375 68.3725 43.71 68.3725 45.345C68.3725 47.06 68.9 48.225 70.0075 48.225C71.0075 48.225 71.53 47.225 71.53 45.315C71.53 43.655 71.115 42.4375 69.98 42.4375H69.95Z" fill="white"/>
<path d="M56.1775 171.77C51.71 171.77 43.4275 168.123 47.81 163.238C48.2725 162.683 48.8477 162.232 49.4975 161.915L49.5325 161.893H49.5475C50.5957 161.404 51.7175 161.091 52.8675 160.968C53.2375 160.937 53.61 160.949 53.9775 161.003C53.3925 160.975 52.71 161.293 51.9025 162.065C51.76 162.195 51.6075 162.36 51.45 162.533C47.0775 167.408 51.6625 171.378 56.1775 171.77Z" fill="#D7E8F0"/>
<path d="M57.3275 171.548L56.6325 171.68C56.6325 171.68 54.9775 163.9 51.9025 162.06C52.71 161.288 53.4025 160.97 53.9775 160.998C53.989 161 54.001 161 54.0125 160.998L54.2625 161.033L54.35 161.053C57.2175 161.935 57.3275 171.548 57.3275 171.548Z" fill="#185DCF"/>
<path d="M56.7875 197.362H23.2875C22.6096 197.362 21.9588 197.628 21.4753 198.104C20.9918 198.579 20.7143 199.225 20.7025 199.902L20.5625 207.725C20.5562 208.068 20.6184 208.409 20.7455 208.729C20.8725 209.048 21.0619 209.338 21.3026 209.583C21.5433 209.828 21.8304 210.023 22.1471 210.156C22.4639 210.289 22.804 210.357 23.1475 210.357H96.2C96.5397 210.357 96.876 210.29 97.1897 210.16C97.5035 210.03 97.7887 209.839 98.0287 209.599C98.2687 209.359 98.4592 209.074 98.589 208.76C98.7187 208.446 98.7852 208.109 98.785 207.77V199.947C98.785 199.262 98.5127 198.604 98.0277 198.12C97.543 197.635 96.8855 197.362 96.2 197.362H47.8425" stroke="black" stroke-width="1.0325" stroke-miterlimit="10"/>
<path d="M89.235 236.82H28.76C27.5627 236.816 26.4155 236.338 25.5692 235.491C24.7227 234.645 24.2458 233.497 24.2425 232.3V210.357H93.7425V232.3C93.7385 233.495 93.2627 234.641 92.4187 235.487C91.5745 236.334 90.4305 236.813 89.235 236.82Z" stroke="black" stroke-width="1.0325" stroke-miterlimit="10"/>
<path d="M84.995 173.575V178.62C84.995 179.062 84.8192 179.486 84.5065 179.799C84.194 180.111 83.7697 180.287 83.3275 180.287H55.0525V171.907H83.3275C83.7697 171.907 84.194 172.083 84.5065 172.396C84.8192 172.708 84.995 173.132 84.995 173.575Z" fill="#185DCF"/>
<path d="M55.0525 171.907V180.287H36.19C35.9688 180.287 35.7498 180.243 35.5458 180.157C35.342 180.071 35.157 179.946 35.0018 179.788C34.8468 179.631 34.7245 179.444 34.6423 179.238C34.5598 179.033 34.5193 178.813 34.5225 178.592L34.6125 173.54C34.621 173.103 34.8005 172.688 35.1125 172.382C35.4243 172.077 35.8435 171.906 36.28 171.907H55.0525Z" fill="#D7E8F0"/>
<path d="M81.75 180.287V194.449C81.7472 195.223 81.4382 195.964 80.8907 196.51C80.343 197.057 79.601 197.364 78.8275 197.364H57.8975V180.287H81.75Z" fill="#185DCF"/>
<path d="M57.8975 180.287V197.364H39.8275C39.055 197.363 38.3148 197.055 37.7685 196.509C37.2223 195.962 36.9145 195.222 36.9125 194.449V180.287H57.8975Z" fill="#D7E8F0"/>
<path d="M52.3825 197.362V210.357" stroke="black" stroke-width="1.0325" stroke-miterlimit="10"/>
<path d="M56.7875 210.357V236.82" stroke="black" stroke-width="1.0325" stroke-miterlimit="10"/>
<path d="M84.995 173.575V178.62C84.995 179.062 84.8192 179.486 84.5065 179.799C84.194 180.111 83.7697 180.287 83.3275 180.287H55.0525V171.907H83.3275C83.7697 171.907 84.194 172.083 84.5065 172.396C84.8192 172.708 84.995 173.132 84.995 173.575Z" stroke="black" stroke-width="1.0325" stroke-miterlimit="10"/>
<path d="M55.0525 171.907V180.287H36.19C35.9688 180.287 35.7498 180.243 35.5458 180.157C35.342 180.071 35.157 179.946 35.0018 179.788C34.8468 179.631 34.7245 179.444 34.6423 179.238C34.5598 179.033 34.5193 178.813 34.5225 178.592L34.6125 173.54C34.621 173.103 34.8005 172.688 35.1125 172.382C35.4243 172.077 35.8435 171.906 36.28 171.907H55.0525Z" stroke="black" stroke-width="1.0325" stroke-miterlimit="10"/>
<path d="M81.75 180.287V194.449C81.7472 195.223 81.4382 195.964 80.8907 196.51C80.343 197.057 79.601 197.364 78.8275 197.364H57.8975V180.287H81.75Z" stroke="black" stroke-width="1.0325" stroke-miterlimit="10"/>
<path d="M57.8975 180.287V197.364H39.8275C39.055 197.363 38.3148 197.055 37.7685 196.509C37.2223 195.962 36.9145 195.222 36.9125 194.449V180.287H57.8975Z" stroke="black" stroke-width="1.0325" stroke-miterlimit="10"/>
<path d="M60.8425 171.905C67.755 169.905 78.3925 162.358 70.1225 156.108C69.2317 155.384 68.1985 154.857 67.09 154.56C67.0505 154.543 67.008 154.533 66.965 154.53C66.3342 154.382 65.6762 154.396 65.0525 154.571C64.4287 154.746 63.8595 155.076 63.3975 155.53" stroke="black" stroke-width="1.0325" stroke-miterlimit="10"/>
<path d="M63.3975 155.525C59.185 159.312 58.995 171.905 58.995 171.905H57.875C57.875 171.905 53.7075 149.29 63.3975 155.525Z" stroke="black" stroke-width="1.0325" stroke-miterlimit="10"/>
<path d="M59.72 171.906H58.995C58.995 171.906 59.185 159.313 63.3975 155.526C63.6912 155.705 63.9757 155.9 64.25 156.108C72.535 162.358 66.6175 169.918 59.72 171.906Z" stroke="black" stroke-width="1.0325" stroke-miterlimit="10"/>
<path d="M59.3 154.655C60.0323 154.389 60.792 154.207 61.565 154.11C63.4145 153.95 65.278 154.101 67.0775 154.557" stroke="black" stroke-width="1.0325" stroke-miterlimit="10"/>
<path d="M55.5775 171.905C51.05 171.515 43.535 168.12 47.9025 163.24C48.3663 162.682 48.943 162.23 49.595 161.912C49.617 161.897 49.6415 161.885 49.6675 161.877C50.0403 161.709 50.4495 161.637 50.8573 161.669C51.265 161.701 51.658 161.836 52 162.06" stroke="black" stroke-width="1.0325" stroke-miterlimit="10"/>
<path d="M51.9875 162.06C55.0625 163.895 56.71 171.683 56.71 171.683L57.405 171.545C57.405 171.545 57.2375 157.015 51.9875 162.06Z" stroke="black" stroke-width="1.0325" stroke-miterlimit="10"/>
<path d="M56.26 171.77L56.71 171.682C56.71 171.682 55.0625 163.895 51.9875 162.06C51.8425 162.19 51.69 162.352 51.53 162.525C47.155 167.407 51.7425 171.375 56.26 171.77Z" stroke="black" stroke-width="1.0325" stroke-miterlimit="10"/>
<path d="M54.425 161.022C53.938 160.946 53.4443 160.925 52.9525 160.96C51.7838 161.085 50.6448 161.406 49.5825 161.91" stroke="black" stroke-width="1.0325" stroke-miterlimit="10"/>
<path d="M202.577 70.2505L203.555 72.0005C203.555 72.0005 202.125 75.1805 205.957 75.7305C209.79 76.2805 214.835 72.513 214.972 70.0255C220.86 72.3005 223.972 78.0255 224.027 84.1555C224.127 99.3305 204.602 108.531 191.555 107.156C184.997 106.468 178.805 103.576 173.635 99.493C172.945 98.958 172.282 98.3955 171.635 97.8155C170.325 96.6208 169.097 95.3385 167.96 93.978C167.372 93.278 166.798 92.562 166.24 91.8305" stroke="black" stroke-width="0.9425" stroke-miterlimit="10"/>
<path d="M210.945 63.13L214.7 70.2925" stroke="black" stroke-width="1.0325" stroke-miterlimit="10"/>
<path d="M16 236.818H233.155" stroke="black" stroke-width="1.0325" stroke-miterlimit="10"/>
<path d="M165.827 35.3027H165.795C164.585 35.5077 163.13 36.5852 162.375 37.9802C161.51 39.5577 161.41 41.4802 161.225 42.2952C161.205 42.3877 161.185 42.4777 161.175 42.5602C161.153 42.6297 161.137 42.7007 161.125 42.7727L161.092 42.8952C160.977 43.29 160.718 43.6272 160.366 43.8407C160.015 44.0545 159.596 44.1292 159.193 44.0505C158.789 43.9715 158.429 43.7447 158.184 43.4145C157.939 43.0842 157.826 42.6745 157.867 42.2652L157.937 41.6952C157.96 41.4902 157.99 41.2977 158.03 41.1052C158.111 40.5467 158.234 39.9952 158.398 39.4552C158.42 39.3705 158.446 39.287 158.477 39.2052C158.508 39.0762 158.549 38.95 158.6 38.8277C158.624 38.762 158.651 38.6977 158.682 38.6352" stroke="black" stroke-width="1.0325" stroke-miterlimit="10"/>
<path d="M168.898 46.6905C168.141 47.4155 167.417 47.777 166.727 47.7755C166.435 47.7758 166.146 47.71 165.882 47.583C165.635 47.4718 165.411 47.313 165.225 47.1155C164.6 46.473 164.625 45.3955 164.922 44.673C165.138 44.204 165.429 43.774 165.785 43.4005C165.898 43.273 166.007 43.1505 166.105 43.018C166.434 42.6433 166.683 42.205 166.835 41.7305C166.835 41.703 166.835 41.678 166.848 41.6505" stroke="black" stroke-width="1.0325" stroke-miterlimit="10"/>
<path d="M162.962 34.6025C163.43 34.69 163.88 34.7975 164.34 34.9025C164.8 35.0075 165.31 35.1525 165.79 35.3025C166.89 35.6277 167.92 36.154 168.827 36.855C171.292 38.6775 171.81 41.785 170.033 44.0775" stroke="black" stroke-width="1.0325" stroke-miterlimit="10"/>
<path d="M161.225 42.2945C161.225 42.317 161.225 42.337 161.212 42.3645C161.206 42.4485 161.194 42.532 161.177 42.6145L161.122 43.1845C161.09 43.4925 161.145 43.8035 161.281 44.0817C161.417 44.3597 161.628 44.594 161.892 44.7575C162.155 44.9207 162.458 45.0067 162.768 45.0052C163.078 45.004 163.381 44.9152 163.642 44.7495C163.831 44.633 163.993 44.4785 164.118 44.296C164.244 44.1137 164.331 43.9072 164.372 43.6895C164.42 43.477 164.46 43.247 164.515 43.0295C164.715 42.1845 164.79 41.4295 165.42 40.7795C165.597 40.5957 165.809 40.448 166.042 40.3445C166.101 40.3195 166.162 40.3 166.225 40.287" stroke="black" stroke-width="1.0325" stroke-miterlimit="10"/>
<path d="M154.543 40.8005V40.7355C154.65 39.6542 154.935 38.5982 155.388 37.6105C155.668 36.993 156.043 36.4235 156.5 35.923C157.216 35.1152 158.186 34.5755 159.25 34.393C159.558 34.348 159.86 34.318 160.17 34.303C161.105 34.2897 162.037 34.3905 162.948 34.603C162.198 34.6605 160.913 35.463 159.985 36.473C159.614 36.8557 159.304 37.2932 159.065 37.7705C158.948 38.0205 158.815 38.2955 158.723 38.5605C158.628 38.7755 158.545 38.993 158.473 39.2055C158.255 39.8205 158.068 40.428 157.925 40.988C157.86 41.238 157.8 41.488 157.753 41.713C157.675 42.1297 157.447 42.5032 157.112 42.7627C156.777 43.0225 156.358 43.1497 155.935 43.1205C155.505 43.0702 155.112 42.8522 154.841 42.5137C154.571 42.1752 154.444 41.7437 154.49 41.313L154.54 40.8005" stroke="black" stroke-width="1.0325" stroke-miterlimit="10"/>
<path d="M152.578 84.5772C152.153 83.7247 151.878 82.7897 152.288 81.9747C153.215 80.1247 156.198 81.1047 157.943 79.9747C159.443 79.0122 159.29 77.8697 160.11 76.4447C161.068 74.7772 162.793 75.4447 164.11 76.2747C165.793 77.3272 169.468 81.0247 175.36 84.6672C177.193 85.8067 178.947 87.0687 180.61 88.4447C185.243 92.2622 196.783 98.8772 206.815 81.0822" stroke="black" stroke-width="0.96" stroke-miterlimit="10"/>
<path d="M166.482 92.127C165.66 91.2895 164.765 90.4045 163.61 90.1945C162.378 89.967 161.147 90.5495 159.9 90.6095C156.827 90.7495 154.547 87.887 152.965 85.2495C152.835 85.037 152.715 84.8095 152.587 84.582" stroke="black" stroke-width="0.96" stroke-miterlimit="10"/>
<path d="M159.152 88.045C159.152 88.045 156.215 89.6225 154.965 88" stroke="black" stroke-width="0.96" stroke-miterlimit="10"/>
<path d="M153.223 85.6925C153.223 85.6925 155.61 87.3175 157.285 85.9625" stroke="black" stroke-width="0.96" stroke-miterlimit="10"/>
<path d="M152.115 83.545C152.115 83.545 154.192 84.8175 155.085 83.905" stroke="black" stroke-width="0.96" stroke-miterlimit="10"/>
</svg>
