<svg width="24" height="24" viewBox="0 0 24 24" fill="none" xmlns="http://www.w3.org/2000/svg">
<path fill-rule="evenodd" clip-rule="evenodd" d="M10.8434 2.06398C6.66543 2.54415 3.21857 5.6087 2.18044 9.76576C2.07141 10.2028 1.99515 11.1922 2.00024 12.1061C2.0096 13.7962 2.20619 14.7748 2.81191 16.1442L3.15497 16.9199L2.79677 19.4064C2.59991 20.774 2.47615 21.9303 2.52199 21.976C2.56769 22.0218 3.72215 21.8356 5.08724 21.5625L7.56933 21.0657L8.18442 21.3293C12.168 23.0369 17.2064 21.6678 19.9175 18.1411C22.3735 14.9461 22.6827 10.6151 20.7089 7.05831C20.3836 6.472 19.7414 5.67203 19.0043 4.93456C18.0425 3.97228 17.5854 3.6339 16.5568 3.12179C14.7358 2.21513 12.741 1.84592 10.8434 2.06398ZM14.4489 4.10912C20.391 5.97145 22.2634 13.4874 17.8737 17.8569C15.4228 20.2963 11.9425 20.9917 8.75009 19.6799L7.77211 19.2781L6.18897 19.5884C4.96554 19.8282 4.59591 19.8593 4.56246 19.725C4.5385 19.6294 4.61904 18.8712 4.74129 18.0402L4.96375 16.5292L4.6317 15.8664C3.93333 14.472 3.7808 13.7854 3.78066 12.0372C3.78066 10.6787 3.83573 10.2262 4.09123 9.49043C5.10555 6.56809 7.60031 4.37027 10.4911 3.85196C11.5404 3.66392 13.4175 3.78589 14.4489 4.10912ZM8.11256 7.24911C7.55681 7.63554 7.30488 8.00351 7.07649 8.76301C6.87798 9.42284 6.87936 9.54852 7.09315 10.3108C7.40951 11.438 8.3576 13.0138 9.37192 14.0982C11.5002 16.3732 14.6091 17.5375 15.9344 16.5556C16.4651 16.1626 16.9268 15.4335 16.9268 14.9888C16.9268 14.6578 16.7837 14.5255 15.832 13.9766C15.2297 13.6292 14.6544 13.345 14.5532 13.345C14.4522 13.345 14.1365 13.6238 13.8517 13.9645C13.5668 14.3052 13.2252 14.584 13.0923 14.584C12.4348 14.584 10.3028 12.6464 9.71429 11.5138L9.45383 11.0126L9.9552 10.4577C10.2309 10.1523 10.4566 9.85662 10.4566 9.80031C10.4566 9.51342 9.7041 7.46167 9.52252 7.25338C9.25435 6.9457 8.55199 6.94364 8.11256 7.24911Z" fill="#2E2E2E"/>
</svg>
