<svg width="24" height="24" viewBox="0 0 24 24" fill="none" xmlns="http://www.w3.org/2000/svg">
<path fill-rule="evenodd" clip-rule="evenodd" d="M11.9108 1.34389C11.0192 1.81952 10.4845 1.90134 9.66601 1.68715C8.76486 1.45137 8.49032 1.47582 7.91007 1.84386C7.44832 2.13668 7.37806 2.2391 7.17422 2.91758C6.88811 3.8694 6.29058 4.66285 5.51034 5.12648C4.83187 5.52976 4.41295 6.16012 4.41295 6.77803C4.41295 6.99982 4.56658 7.43592 4.78506 7.83446C5.28272 8.74234 5.33624 9.11577 5.11522 10.1403C4.95939 10.8624 4.95223 11.0697 5.06929 11.4618C5.22138 11.9718 5.94798 12.7529 6.27009 12.7529C6.70057 12.7529 7.48191 13.1129 7.82924 13.4712C8.03132 13.6797 8.32403 14.0865 8.47974 14.3753C8.81684 15.0003 9.47109 15.3775 10.3774 15.4694C10.9272 15.525 10.9976 15.5032 11.4609 15.1343C12.1333 14.5991 12.8405 14.4549 13.6963 14.6784C14.5294 14.896 14.7985 14.8889 15.2922 14.6357C15.9116 14.3181 16.1802 13.9624 16.4003 13.1684C16.6296 12.3418 16.947 11.8938 17.565 11.5247C18.2763 11.0997 18.6994 10.6294 18.84 10.1072C19.0069 9.48756 18.9315 9.04012 18.5614 8.45392C18.1858 7.85891 18.0973 7.22844 18.2202 6.024C18.2739 5.49683 18.2836 4.92891 18.2417 4.76196C18.1076 4.22752 17.526 3.7672 16.6587 3.50884C15.7679 3.24355 15.2466 2.81649 14.7442 1.94022C14.3612 1.2722 14.036 1.0699 13.2544 1.01318C12.692 0.972435 12.5343 1.01131 11.9108 1.34389ZM12.8016 3.00117C13.8564 3.22472 14.6298 3.64364 15.4146 4.41639C18.215 7.17382 17.1784 11.8505 13.4617 13.2274C12.5768 13.5551 10.7855 13.5551 9.90068 13.2274C8.07338 12.5505 6.68515 10.864 6.39288 8.96611C5.97265 6.23775 7.79961 3.59584 10.5151 3.00502C11.3963 2.81329 11.9109 2.81241 12.8016 3.00117ZM10.9103 3.63934C9.66369 3.81863 8.16468 4.88618 7.61538 5.98612C6.40147 8.41681 7.26419 11.1066 9.64387 12.3113C10.9925 12.994 12.3578 12.989 13.7667 12.2963C15.4398 11.4738 16.4183 9.74051 16.2752 7.8523C16.1479 6.17135 15.3412 4.95435 13.7676 4.06971C13.0604 3.67216 11.8989 3.49728 10.9103 3.63934ZM14.6217 6.16694C14.8215 6.36054 14.9849 6.56791 14.9849 6.62782C14.9849 6.68762 14.0995 7.61465 13.0173 8.68772L11.0498 10.6388L9.96323 9.54824L8.87663 8.45755L9.31746 8.01672L9.75829 7.57589L10.4081 8.19039L11.058 8.80489L12.5529 7.30993C13.3751 6.48774 14.0953 5.81498 14.1533 5.81498C14.2112 5.81498 14.4221 5.97334 14.6217 6.16694ZM17.1874 15.6445C16.1399 16.3302 14.7291 16.9351 13.8561 17.0729C13.2099 17.1749 13.0027 17.2496 13.0027 17.3809C13.0027 17.4763 13.045 17.6014 13.0965 17.659C13.1481 17.7165 13.4544 18.4078 13.777 19.1952C14.0996 19.9826 14.3997 20.6764 14.4439 20.737C14.4879 20.7975 14.7086 21.3089 14.9343 21.8733C15.1598 22.4376 15.3843 22.8589 15.4332 22.8093C15.4821 22.7598 15.7443 21.959 16.0159 21.03C16.2875 20.1009 16.5347 19.3157 16.5653 19.2851C16.5959 19.2544 17.3714 19.5856 18.2887 20.0212C19.2059 20.4567 19.9749 20.7944 19.9977 20.7716C20.0205 20.7488 19.8729 20.3352 19.6698 19.8526C18.4689 16.999 17.9777 15.8595 17.839 15.6058L17.683 15.32L17.1874 15.6445ZM5.76616 16.6366C3.88116 20.7689 3.86618 20.8057 4.10846 20.7287C4.23642 20.6882 4.99992 20.3389 5.80526 19.9527C6.61049 19.5663 7.3111 19.2503 7.36209 19.2503C7.41308 19.2503 7.51703 19.4932 7.59313 19.7901C7.66923 20.087 7.92009 20.9171 8.15047 21.6347C8.55166 22.8841 8.57489 22.9259 8.6968 22.6212C8.76684 22.4462 9.01847 21.8763 9.25579 21.3548C10.3316 18.9916 10.8265 17.8552 10.8788 17.6273C10.943 17.3479 10.9484 17.3504 9.86412 17.1547C8.79933 16.9627 8.36004 16.7952 7.26199 16.1631C6.73933 15.8623 6.29333 15.6169 6.27086 15.6179C6.2484 15.6189 6.02121 16.0772 5.76616 16.6366Z" fill="#2E2E2E"/>
</svg>
